<?xml version="1.0" encoding="UTF-8" standalone="no"?>
<!-- Created with Inkscape (http://www.inkscape.org/) -->

<svg
   xmlns:dc="http://purl.org/dc/elements/1.1/"
   xmlns:cc="http://creativecommons.org/ns#"
   xmlns:rdf="http://www.w3.org/1999/02/22-rdf-syntax-ns#"
   xmlns:svg="http://www.w3.org/2000/svg"
   xmlns="http://www.w3.org/2000/svg"
   xmlns:sodipodi="http://sodipodi.sourceforge.net/DTD/sodipodi-0.dtd"
   xmlns:inkscape="http://www.inkscape.org/namespaces/inkscape"
   id="svg4136"
   version="1.1"
   inkscape:version="0.91 r13725"
   xml:space="preserve"
   width="2000"
   height="1000"
   viewBox="0 0 2000 1000"
   sodipodi:docname="blinksandhypnos.svg"><metadata
     id="metadata4142"><rdf:RDF><cc:Work
         rdf:about=""><dc:format>image/svg+xml</dc:format><dc:type
           rdf:resource="http://purl.org/dc/dcmitype/StillImage" /><dc:title></dc:title></cc:Work></rdf:RDF></metadata><defs
     id="defs4140"><clipPath
       clipPathUnits="userSpaceOnUse"
       id="clipPath4152"><path
         d="m 247.137,506.188 428.332,0 0,-207.105 -428.332,0 0,207.105 z"
         id="path4154"
         inkscape:connector-curvature="0" /></clipPath><clipPath
       clipPathUnits="userSpaceOnUse"
       id="clipPath4162"><path
         d="m 290,369 276,0 0,130 -276,0 0,-130 z"
         id="path4164"
         inkscape:connector-curvature="0" /></clipPath><clipPath
       clipPathUnits="userSpaceOnUse"
       id="clipPath4262"><path
         d="m 247.137,506.188 428.332,0 0,-207.105 -428.332,0 0,207.105 z"
         id="path4264"
         inkscape:connector-curvature="0" /></clipPath><clipPath
       clipPathUnits="userSpaceOnUse"
       id="clipPath4272"><path
         d="m 290,306 277,0 0,183 -277,0 0,-183 z"
         id="path4274"
         inkscape:connector-curvature="0" /></clipPath><clipPath
       clipPathUnits="userSpaceOnUse"
       id="clipPath4352"><path
         d="m 815.32,737.727 369.25,0 0,-175.266 -369.25,0 0,175.266 z"
         id="path4354"
         inkscape:connector-curvature="0" /></clipPath><clipPath
       clipPathUnits="userSpaceOnUse"
       id="clipPath4362"><path
         d="m 852,632 238,0 0,100 -238,0 0,-100 z"
         id="path4364"
         inkscape:connector-curvature="0" /></clipPath><clipPath
       clipPathUnits="userSpaceOnUse"
       id="clipPath4474"><path
         d="m 815.32,737.727 369.25,0 0,-175.266 -369.25,0 0,175.266 z"
         id="path4476"
         inkscape:connector-curvature="0" /></clipPath><clipPath
       clipPathUnits="userSpaceOnUse"
       id="clipPath4484"><path
         d="m 852,568 239,0 0,130 -239,0 0,-130 z"
         id="path4486"
         inkscape:connector-curvature="0" /></clipPath><clipPath
       clipPathUnits="userSpaceOnUse"
       id="clipPath4564"><path
         d="m 817.77,498.637 367.031,0 0,-179.43 -367.031,0 0,179.43 z"
         id="path4566"
         inkscape:connector-curvature="0" /></clipPath><clipPath
       clipPathUnits="userSpaceOnUse"
       id="clipPath4574"><path
         d="m 854,371 237,0 0,112 -237,0 0,-112 z"
         id="path4576"
         inkscape:connector-curvature="0" /></clipPath><clipPath
       clipPathUnits="userSpaceOnUse"
       id="clipPath4674"><path
         d="m 817.77,498.637 367.031,0 0,-179.43 -367.031,0 0,179.43 z"
         id="path4676"
         inkscape:connector-curvature="0" /></clipPath><clipPath
       clipPathUnits="userSpaceOnUse"
       id="clipPath4684"><path
         d="m 854,325 238,0 0,168 -238,0 0,-168 z"
         id="path4686"
         inkscape:connector-curvature="0" /></clipPath><clipPath
       clipPathUnits="userSpaceOnUse"
       id="clipPath4764"><path
         d="m 816.383,262.684 368.676,0 0,-186.355 -368.676,0 0,186.355 z"
         id="path4766"
         inkscape:connector-curvature="0" /></clipPath><clipPath
       clipPathUnits="userSpaceOnUse"
       id="clipPath4774"><path
         d="m 853,129 238,0 0,122 -238,0 0,-122 z"
         id="path4776"
         inkscape:connector-curvature="0" /></clipPath><clipPath
       clipPathUnits="userSpaceOnUse"
       id="clipPath4874"><path
         d="m 816.383,262.684 368.676,0 0,-186.355 -368.676,0 0,186.355 z"
         id="path4876"
         inkscape:connector-curvature="0" /></clipPath><clipPath
       clipPathUnits="userSpaceOnUse"
       id="clipPath4884"><path
         d="m 853,82 238,0 0,175 -238,0 0,-175 z"
         id="path4886"
         inkscape:connector-curvature="0" /></clipPath></defs><sodipodi:namedview
     pagecolor="#ffffff"
     bordercolor="#666666"
     borderopacity="1"
     objecttolerance="10"
     gridtolerance="10"
     guidetolerance="10"
     inkscape:pageopacity="0"
     inkscape:pageshadow="2"
     inkscape:window-width="1920"
     inkscape:window-height="1018"
     id="namedview4138"
     showgrid="false"
     inkscape:zoom="1.2"
     inkscape:cx="638.80751"
     inkscape:cy="513.94716"
     inkscape:window-x="-8"
     inkscape:window-y="-8"
     inkscape:window-maximized="1"
     inkscape:current-layer="g4144" /><g
     id="g4144"
     inkscape:groupmode="layer"
     inkscape:label="blinksandhypnos"
     transform="matrix(1.25,0,0,-1.25,0,1000)"><g
       id="g4146" /><g
       id="g4148"><g
         id="g4150"
         clip-path="url(#clipPath4152)"><g
           id="g4156"><g
             id="g4158"><g
               id="g4160"
               clip-path="url(#clipPath4162)"><g
                 id="g4166"><g
                   id="g4168"
                   transform="matrix(0.799608,0,0,1,0,800)"><path
                     d="m 363.357,-430.637 344.446,129.153"
                     style="fill:none;stroke:#663e7f;stroke-width:0.51858503;stroke-linecap:round;stroke-linejoin:round;stroke-miterlimit:10;stroke-dasharray:1.555754, 2.59292400000000000;stroke-dashoffset:0;stroke-opacity:1"
                     id="path4170"
                     inkscape:connector-curvature="0" /></g></g></g></g></g></g></g><g
       id="g4172"><g
         id="g4174"
         transform="matrix(0.799608,0,0,1,0,800)"><path
           d="m 309.072,-475.852 0,150.938"
           style="fill:none;stroke:#000000;stroke-width:0.51858503;stroke-linecap:round;stroke-linejoin:round;stroke-miterlimit:10;stroke-dasharray:none;stroke-opacity:1"
           id="path4176"
           inkscape:connector-curvature="0" /></g><g
         id="g4178"
         transform="matrix(0.799608,0,0,1,0,800)"><path
           d="m 309.072,-475.852 -4.978,0"
           style="fill:none;stroke:#000000;stroke-width:0.51858503;stroke-linecap:round;stroke-linejoin:round;stroke-miterlimit:10;stroke-dasharray:none;stroke-opacity:1"
           id="path4180"
           inkscape:connector-curvature="0" /></g><g
         id="g4182"
         transform="matrix(0.799608,0,0,1,0,800)"><path
           d="m 309.072,-425.543 -4.978,0"
           style="fill:none;stroke:#000000;stroke-width:0.51858503;stroke-linecap:round;stroke-linejoin:round;stroke-miterlimit:10;stroke-dasharray:none;stroke-opacity:1"
           id="path4184"
           inkscape:connector-curvature="0" /></g><g
         id="g4186"
         transform="matrix(0.799608,0,0,1,0,800)"><path
           d="m 309.072,-375.227 -4.978,0"
           style="fill:none;stroke:#000000;stroke-width:0.51858503;stroke-linecap:round;stroke-linejoin:round;stroke-miterlimit:10;stroke-dasharray:none;stroke-opacity:1"
           id="path4188"
           inkscape:connector-curvature="0" /></g><g
         id="g4190"
         transform="matrix(0.799608,0,0,1,0,800)"><path
           d="m 309.072,-324.914 -4.978,0"
           style="fill:none;stroke:#000000;stroke-width:0.51858503;stroke-linecap:round;stroke-linejoin:round;stroke-miterlimit:10;stroke-dasharray:none;stroke-opacity:1"
           id="path4192"
           inkscape:connector-curvature="0" /></g><path
         d="m 228.09403,324.97492 0.11651,-1.00054 c -0.59245,-0.0881 -1.02625,-0.21603 -1.31876,-0.37663 -0.4338,-0.26719 -0.6569,-0.59975 -0.6569,-0.99912 0,-0.31125 0.14377,-0.59407 0.42637,-0.8442 0.33712,-0.31125 0.84281,-0.5557 1.50963,-0.73336 0.67673,-0.17765 1.64597,-0.27713 2.90524,-0.2885 -0.56271,0.23308 -0.97916,0.52158 -1.23944,0.86694 -0.28011,0.35531 -0.42637,0.72056 -0.42637,1.10998 0,0.66655 0.37679,1.22652 1.12293,1.68699 0.75606,0.47185 1.72282,0.71061 2.90524,0.71061 0.77589,0 1.5022,-0.11085 2.16901,-0.33256 0.67674,-0.21034 1.19234,-0.50596 1.5493,-0.88827 0.32969,-0.38799 0.50321,-0.82147 0.50321,-1.31037 0,-0.8442 -0.46355,-1.53208 -1.39313,-2.06504 -0.92957,-0.52159 -2.46152,-0.77741 -4.6107,-0.77741 -2.39955,0 -4.14467,0.2942 -5.22794,0.88827 -0.94941,0.50027 -1.43279,1.18246 -1.43279,2.04372 0,0.63245 0.2702,1.15403 0.81307,1.5534 0.54288,0.41073 1.30637,0.66655 2.28552,0.75609 z m 5.34445,-4.08602 c 0.52304,0 1.02625,0.0711 1.50963,0.22171 0.49578,0.14354 0.87257,0.34394 1.12541,0.59976 0.23054,0.26577 0.34704,0.54433 0.34704,0.84278 0,0.41216 -0.25036,0.76746 -0.7734,1.06592 -0.51313,0.31125 -1.22209,0.46758 -2.13183,0.46758 -0.85026,0 -1.51955,-0.15064 -2.01285,-0.44484 -0.48586,-0.29988 -0.73622,-0.6765 -0.73622,-1.13271 0,-0.44343 0.25036,-0.83284 0.73622,-1.15404 0.4933,-0.31125 1.14276,-0.46616 1.936,-0.46616 z"
         style="fill:#000000;fill-opacity:1;fill-rule:nonzero;stroke:none"
         id="path4198"
         inkscape:connector-curvature="0" /><path
         d="m 234.21437,326.33503 -0.15617,1.06592 c 0.80315,0.0711 1.3956,0.24871 1.78231,0.53296 0.3867,0.27714 0.58005,0.62107 0.58005,1.02044 0,0.4889 -0.27019,0.89395 -0.81307,1.22225 -0.5627,0.33825 -1.29645,0.51022 -2.20867,0.51022 -0.87008,0 -1.55673,-0.16628 -2.05251,-0.4889 -0.51312,-0.32688 -0.7734,-0.74899 -0.7734,-1.26489 0,-0.31125 0.1165,-0.59976 0.34704,-0.86695 0.21318,-0.2544 0.49577,-0.45479 0.85273,-0.59975 l -0.19335,-0.95364 -6.35087,0.79872 0,4.04197 1.43279,0 0,-3.24182 3.32912,-0.44484 c -0.51313,0.4889 -0.77341,0.99912 -0.77341,1.53208 0,0.71061 0.38671,1.31037 1.16259,1.79927 0.75358,0.4889 1.70299,0.73193 2.86558,0.73193 1.14276,0 2.11943,-0.21603 2.94242,-0.64381 0.98907,-0.52159 1.47245,-1.23221 1.47245,-2.13184 0,-0.7433 -0.30986,-1.34874 -0.92958,-1.82059 -0.63955,-0.46048 -1.47988,-0.72767 -2.51605,-0.79873 z"
         style="fill:#000000;fill-opacity:1;fill-rule:nonzero;stroke:none"
         id="path4200"
         inkscape:connector-curvature="0" /><path
         d="m 225.50329,370.12844 -1.62747,0 0,5.31072 1.32609,0 c 0.9425,-0.52421 2.18366,-1.04272 3.72619,-1.56122 1.5398,-0.5085 3.12343,-0.90416 4.7509,-1.18412 1.14526,-0.19426 2.39737,-0.32282 3.76729,-0.37853 l 0,-1.027 c -1.0795,0 -2.37545,0.11713 -3.89606,0.35709 -1.5398,0.2514 -3.01658,0.60278 -4.45226,1.04844 -1.42198,0.45851 -2.62203,0.94415 -3.59468,1.45123 l 0,-4.01661 z"
         style="fill:#000000;fill-opacity:1;fill-rule:nonzero;stroke:none"
         id="path4206"
         inkscape:connector-curvature="0" /><path
         d="m 230.6816,376.65043 c -1.62473,0 -2.92067,0.0943 -3.89606,0.28996 -0.99457,0.20711 -1.76446,0.50279 -2.30969,0.89274 -0.53701,0.40137 -0.81374,0.89845 -0.81374,1.49551 0,0.42994 0.15891,0.80846 0.47126,1.13842 0.28768,0.33995 0.7151,0.6142 1.28224,0.8256 0.54797,0.22283 1.22198,0.38995 2.01379,0.51279 0.80278,0.11713 1.88228,0.17855 3.2522,0.17855 1.60556,0 2.9015,-0.1 3.89607,-0.28996 1.00552,-0.19426 1.77816,-0.48994 2.31243,-0.89274 0.51235,-0.38995 0.7699,-0.88131 0.7699,-1.47266 0,-0.79275 -0.47125,-1.40552 -1.41102,-1.85261 -1.13704,-0.55278 -2.9974,-0.8256 -5.56738,-0.8256 z m 0,1.04843 c 2.26038,0 3.75634,0.15712 4.4961,0.46994 0.74798,0.31138 1.11238,0.69705 1.11238,1.15984 0,0.45708 -0.3644,0.84846 -1.11238,1.16127 -0.73976,0.31139 -2.23572,0.46851 -4.4961,0.46851 -2.24667,0 -3.74537,-0.15712 -4.49335,-0.46851 -0.73976,-0.31281 -1.11512,-0.7099 -1.11512,-1.18412 0,-0.4628 0.33426,-0.82561 0.98635,-1.09271 0.83291,-0.34567 2.37545,-0.51422 4.62212,-0.51422 z"
         style="fill:#000000;fill-opacity:1;fill-rule:nonzero;stroke:none"
         id="path4208"
         inkscape:connector-curvature="0" /><path
         d="m 226.16754,419.10311 -1.53854,0 0,5.89307 1.25363,0 c 0.89101,-0.58154 2.06434,-1.15833 3.52259,-1.73353 1.45566,-0.56253 2.95276,-1.00304 4.4913,-1.31204 1.08268,-0.21709 2.26638,-0.35812 3.56145,-0.4215 l 0,-1.13773 c -1.02052,0 -2.24565,0.12994 -3.68318,0.39615 -1.45566,0.2773 -2.85175,0.66869 -4.20898,1.16308 -1.34428,0.50707 -2.47877,1.04583 -3.39827,1.60994 l 0,-4.45744 z"
         style="fill:#000000;fill-opacity:1;fill-rule:nonzero;stroke:none"
         id="path4214"
         inkscape:connector-curvature="0" /><path
         d="m 234.0597,426.33991 -0.16318,1.18844 c 0.83921,0.0792 1.45825,0.2773 1.86232,0.59422 0.40406,0.309 0.60609,0.69247 0.60609,1.13773 0,0.5451 -0.28233,0.99671 -0.84957,1.36275 -0.58796,0.37713 -1.35464,0.56886 -2.30781,0.56886 -0.90914,0 -1.62661,-0.18539 -2.14464,-0.54509 -0.53616,-0.36446 -0.80812,-0.83508 -0.80812,-1.41028 0,-0.34703 0.12173,-0.6687 0.36262,-0.9666 0.22275,-0.28364 0.51802,-0.50707 0.891,-0.6687 l -0.20203,-1.06325 -6.63594,0.89053 0,4.50656 1.4971,0 0,-3.61443 3.47856,-0.49598 c -0.53616,0.5451 -0.80812,1.11396 -0.80812,1.70818 0,0.7923 0.40406,1.46099 1.21478,2.00609 0.7874,0.5451 1.77942,0.81606 2.9942,0.81606 1.19405,0 2.21457,-0.24086 3.0745,-0.71782 1.03346,-0.58154 1.53854,-1.37383 1.53854,-2.37688 0,-0.82873 -0.32377,-1.50377 -0.9713,-2.02985 -0.66826,-0.51341 -1.54632,-0.81131 -2.629,-0.89054 z"
         style="fill:#000000;fill-opacity:1;fill-rule:nonzero;stroke:none"
         id="path4216"
         inkscape:connector-curvature="0" /><path
         d="m 229.99664,467.63007 c -0.2548,-0.60296 -0.60824,-1.05518 -1.06854,-1.35459 -0.48221,-0.28083 -1.04936,-0.41918 -1.7124,-0.41918 -0.99731,0 -1.84118,0.29942 -2.52615,0.90444 -0.68496,0.61947 -1.02744,1.45164 -1.02744,2.4841 0,1.03246 0.3644,1.85429 1.06854,2.4841 0.68496,0.62154 1.53158,0.9354 2.52614,0.9354 0.63291,0 1.1891,-0.14454 1.67131,-0.41917 0.4603,-0.2829 0.81374,-0.72686 1.06854,-1.32362 0.29043,0.72685 0.75072,1.27406 1.36993,1.64574 0.60002,0.38821 1.31786,0.58025 2.14256,0.58025 1.17539,0 2.16174,-0.35517 2.95356,-1.06344 0.80277,-0.71033 1.19731,-1.64574 1.19731,-2.80829 0,-1.18526 -0.39454,-2.12893 -1.19731,-2.83926 -0.79182,-0.70827 -1.80008,-1.06344 -2.9974,-1.06344 -0.87675,0 -1.62747,0.19204 -2.2275,0.58024 -0.59728,0.38614 -1.00552,0.94367 -1.24115,1.67672 z m -2.86862,-0.28909 c 0.66578,0 1.20005,0.16932 1.62747,0.51623 0.40824,0.36343 0.60003,0.83836 0.60003,1.4186 0,0.55753 -0.19179,1.00975 -0.60003,1.35665 -0.42742,0.36136 -0.92059,0.54721 -1.4987,0.54721 -0.6192,0 -1.15621,-0.18585 -1.58363,-0.54721 -0.42742,-0.37168 -0.64112,-0.83216 -0.64112,-1.38762 0,-0.54101 0.2137,-0.99323 0.64112,-1.35666 0.40824,-0.36962 0.88771,-0.5472 1.45486,-0.5472 z m 6.33727,-0.48526 c 0.49317,0 0.96169,0.0971 1.41376,0.29116 0.4603,0.1941 0.811,0.48319 1.06854,0.87139 0.23563,0.38614 0.34249,0.80739 0.34249,1.25754 0,0.68555 -0.25755,1.2596 -0.7699,1.70975 -0.51509,0.45222 -1.16718,0.67936 -1.96995,0.67936 -0.8247,0 -1.4987,-0.24366 -2.01105,-0.71033 -0.53701,-0.45222 -0.81374,-1.0242 -0.81374,-1.70975 0,-0.69382 0.27673,-1.2596 0.81374,-1.70976 0.51235,-0.45221 1.15621,-0.67936 1.92611,-0.67936 z"
         style="fill:#000000;fill-opacity:1;fill-rule:nonzero;stroke:none"
         id="path4222"
         inkscape:connector-curvature="0" /><path
         d="m 230.6816,474.89859 c -1.62473,0 -2.92067,0.13628 -3.89606,0.41918 -0.99457,0.29941 -1.76446,0.72685 -2.30969,1.29057 -0.53701,0.58024 -0.81374,1.29884 -0.81374,2.16197 0,0.62154 0.15891,1.16875 0.47126,1.64574 0.28768,0.49146 0.7151,0.88792 1.28224,1.19353 0.54797,0.32213 1.22198,0.56372 2.01379,0.7413 0.80278,0.16933 1.88228,0.25812 3.2522,0.25812 1.60556,0 2.9015,-0.14454 3.89607,-0.41918 1.00552,-0.28083 1.77816,-0.70827 2.31243,-1.29057 0.51235,-0.56373 0.7699,-1.27406 0.7699,-2.12894 0,-1.14603 -0.47125,-2.03188 -1.41102,-2.6782 -1.13704,-0.79912 -2.9974,-1.19352 -5.56738,-1.19352 z m 0,1.51565 c 2.26038,0 3.75634,0.22714 4.4961,0.67936 0.74798,0.45015 1.11238,1.00768 1.11238,1.67671 0,0.66078 -0.3644,1.22657 -1.11238,1.67878 -0.73976,0.45016 -2.23572,0.6773 -4.4961,0.6773 -2.24667,0 -3.74537,-0.22714 -4.49335,-0.6773 -0.73976,-0.45221 -1.11512,-1.02626 -1.11512,-1.71182 0,-0.66903 0.33426,-1.19352 0.98635,-1.57966 0.83291,-0.49971 2.37545,-0.74337 4.62212,-0.74337 z"
         style="fill:#000000;fill-opacity:1;fill-rule:nonzero;stroke:none"
         id="path4224"
         inkscape:connector-curvature="0" /><text
         xml:space="preserve"
         style="font-style:normal;font-weight:normal;font-size:16px;line-height:125%;font-family:sans-serif;letter-spacing:0px;word-spacing:0px;fill:#000000;fill-opacity:1;stroke:none;stroke-width:1px;stroke-linecap:butt;stroke-linejoin:miter;stroke-opacity:1"
         x="414.00006"
         y="-269.33334"
         id="text6058"
         sodipodi:linespacing="125%"
         transform="scale(1,-1)"><tspan
           sodipodi:role="line"
           id="tspan6060"
           x="414.00006"
           y="-269.33334">Lags</tspan></text>
<text
         y="214.95038"
         x="375.69388"
         transform="matrix(0,1,1,0,0,0)"
         style="font-style:normal;font-variant:normal;font-weight:normal;font-stretch:normal;font-size:12px;line-height:125%;font-family:Helvetica;-inkscape-font-specification:'Helvetica, Normal';text-align:start;writing-mode:lr-tb;text-anchor:start;fill:#000000;fill-opacity:1;fill-rule:nonzero;stroke:none"
         id="text7180"
         sodipodi:linespacing="125%"><tspan
           y="214.95038"
           x="375.69388"
           sodipodi:role="line"
           id="tspan8474">Accuracy (%)</tspan></text>
<path
         style="fill:none;fill-rule:evenodd;stroke:#000000;stroke-width:0.59852225px;stroke-linecap:butt;stroke-linejoin:miter;stroke-opacity:1"
         d="m 267.5224,301.31097 c 310.6377,-1.53676 382.78033,-1.02452 382.78033,-1.02452 l 0,0"
         id="path3478"
         inkscape:connector-curvature="0" /></g><g
       id="g4258"><g
         id="g4260"
         clip-path="url(#clipPath4262)"><g
           id="g4266"><g
             id="g4268"><g
               id="g4270"
               clip-path="url(#clipPath4272)"><g
                 id="g4276"><g
                   id="g4278"
                   transform="matrix(0.799608,0,0,1,0,800)"><path
                     d="m 363.357,-493.25 344.446,181.125"
                     style="fill:none;stroke:#663e7f;stroke-width:0.51858503;stroke-linecap:round;stroke-linejoin:round;stroke-miterlimit:10;stroke-dasharray:none;stroke-opacity:1"
                     id="path4280"
                     inkscape:connector-curvature="0" /></g></g></g></g></g></g></g><g
       id="g4282"><text
         xml:space="preserve"
         style="font-style:normal;font-weight:normal;font-size:16px;line-height:125%;font-family:sans-serif;letter-spacing:0px;word-spacing:0px;fill:#000000;fill-opacity:1;stroke:none;stroke-width:1px;stroke-linecap:butt;stroke-linejoin:miter;stroke-opacity:1"
         x="280"
         y="-284"
         id="text6036"
         sodipodi:linespacing="125%"
         transform="scale(1,-1)"><tspan
           sodipodi:role="line"
           id="tspan6038"
           x="280"
           y="-284">Early</tspan></text>
<text
         xml:space="preserve"
         style="font-style:normal;font-weight:normal;font-size:16px;line-height:125%;font-family:sans-serif;letter-spacing:0px;word-spacing:0px;fill:#000000;fill-opacity:1;stroke:none;stroke-width:1px;stroke-linecap:butt;stroke-linejoin:miter;stroke-opacity:1"
         x="537.78778"
         y="-283.79791"
         id="text6036-8"
         sodipodi:linespacing="125%"
         transform="scale(1,-1)"><tspan
           sodipodi:role="line"
           id="tspan6038-3"
           x="537.78778"
           y="-283.79791">Late</tspan></text>
<g
         transform="translate(-85.469477,126.63714)"
         id="g4372"><path
           d="m 655.44,330.93 21.6,0"
           style="fill:none;stroke:#030005;stroke-width:0;stroke-linecap:round;stroke-linejoin:round;stroke-miterlimit:10;stroke-dasharray:none;stroke-dashoffset:0;stroke-opacity:1"
           id="path4378"
           inkscape:connector-curvature="0" /><text
           transform="scale(1,-1)"
           style="font-variant:normal;font-weight:normal;font-size:12px;font-family:Helvetica;-inkscape-font-specification:Helvetica;writing-mode:lr-tb;fill:#000000;fill-opacity:1;fill-rule:nonzero;stroke:none"
           id="text4382"
           x="687.83997"
           y="-326.63004"><tspan
             sodipodi:role="line"
             id="tspan4384"
             x="687.83997"
             y="-326.63004">Angry</tspan></text>
<path
           d="m 657.06412,329.94639 21.6,0"
           style="fill:none;stroke:#663e7f;stroke-width:0.75040001;stroke-linecap:round;stroke-linejoin:round;stroke-miterlimit:10;stroke-dasharray:3.00160007, 3.00160007;stroke-dashoffset:0;stroke-opacity:1"
           id="path4380-1"
           inkscape:connector-curvature="0" /><text
           y="-349.64658"
           x="673.46387"
           style="font-variant:normal;font-weight:normal;font-size:12px;font-family:Helvetica;-inkscape-font-specification:Helvetica;writing-mode:lr-tb;fill:#000000;fill-opacity:1;fill-rule:nonzero;stroke:none"
           id="text4386-0"
           transform="scale(1,-1)"><tspan
             sodipodi:role="line"
             id="tspan4388-6"
             x="673.46387"
             y="-349.64658"
             style="font-weight:bold">Target 2</tspan></text>
<text
           y="-314.71304"
           x="688.13116"
           style="font-variant:normal;font-weight:normal;font-size:12px;font-family:Helvetica;-inkscape-font-specification:Helvetica;writing-mode:lr-tb;fill:#000000;fill-opacity:1;fill-rule:nonzero;stroke:none"
           id="text4386-0-7"
           transform="scale(1,-1)"><tspan
             sodipodi:role="line"
             id="tspan4388-6-1"
             x="688.13116"
             y="-314.71304">Neutral</tspan></text>
<path
           d="m 656.00281,318.42953 21.6,0"
           style="fill:none;stroke:#663e7f;stroke-width:0.75;stroke-linecap:round;stroke-linejoin:round;stroke-miterlimit:10;stroke-dasharray:none;stroke-opacity:1"
           id="path4380-1-4"
           inkscape:connector-curvature="0" /></g><rect
         style="fill:none;fill-opacity:1;stroke:#1d1621;stroke-width:1.02427363;stroke-miterlimit:4;stroke-dasharray:none;stroke-dashoffset:0;stroke-opacity:1"
         id="rect8849"
         width="90.254936"
         height="30.921591"
         x="566.07251"
         y="-466.86087"
         transform="scale(1,-1)" /></g><g
       id="g4894"><path
         d="m 355.242,523.352 -1.547,0 0,5.703 -5.812,0 0,-5.703 -1.547,0 0,11.64 1.547,0 0,-4.562 5.812,0 0,4.562 1.547,0 0,-11.64 z"
         style="fill:#000000;fill-opacity:1;fill-rule:nonzero;stroke:none"
         id="path4960"
         inkscape:connector-curvature="0" /><path
         d="m 365.805,532.086 -5.094,-11.953 -1.578,0 1.625,3.64 -3.469,8.313 1.594,0 2.672,-6.469 2.703,6.469 1.547,0 z"
         style="fill:#000000;fill-opacity:1;fill-rule:nonzero;stroke:none"
         id="path4962"
         inkscape:connector-curvature="0" /><path
         d="m 375.398,527.82 c 0,-0.711 -0.105,-1.355 -0.312,-1.937 -0.199,-0.586 -0.481,-1.078 -0.844,-1.485 -0.344,-0.386 -0.75,-0.687 -1.219,-0.906 -0.468,-0.207 -0.964,-0.312 -1.484,-0.312 -0.449,0 -0.859,0.054 -1.234,0.156 -0.367,0.094 -0.735,0.242 -1.11,0.453 l 0,-3.656 -1.468,0 0,11.953 1.468,0 0,-0.922 c 0.383,0.332 0.821,0.609 1.313,0.828 0.488,0.219 1.008,0.328 1.562,0.328 1.051,0 1.868,-0.398 2.453,-1.187 0.582,-0.793 0.875,-1.899 0.875,-3.313 z m -1.515,-0.031 c 0,1.051 -0.184,1.836 -0.547,2.359 -0.356,0.52 -0.902,0.782 -1.641,0.782 -0.429,0 -0.855,-0.094 -1.281,-0.282 -0.43,-0.179 -0.836,-0.418 -1.219,-0.718 l 0,-4.938 c 0.414,-0.187 0.77,-0.32 1.063,-0.39 0.301,-0.063 0.644,-0.094 1.031,-0.094 0.813,0 1.445,0.273 1.906,0.828 0.457,0.551 0.688,1.367 0.688,2.453 z"
         style="fill:#000000;fill-opacity:1;fill-rule:nonzero;stroke:none"
         id="path4964"
         inkscape:connector-curvature="0" /><path
         d="m 384.992,523.352 -1.469,0 0,4.968 c 0,0.407 -0.027,0.782 -0.078,1.125 -0.043,0.352 -0.125,0.629 -0.25,0.828 -0.136,0.219 -0.328,0.379 -0.578,0.485 -0.242,0.113 -0.554,0.172 -0.937,0.172 -0.407,0 -0.828,-0.102 -1.266,-0.297 -0.437,-0.199 -0.855,-0.453 -1.25,-0.766 l 0,-6.515 -1.469,0 0,8.734 1.469,0 0,-0.969 c 0.457,0.375 0.93,0.664 1.422,0.875 0.488,0.219 0.988,0.328 1.5,0.328 0.945,0 1.664,-0.289 2.156,-0.859 0.5,-0.563 0.75,-1.375 0.75,-2.438 l 0,-5.671 z"
         style="fill:#000000;fill-opacity:1;fill-rule:nonzero;stroke:none"
         id="path4966"
         inkscape:connector-curvature="0" /><path
         d="m 395.258,527.711 c 0,-1.418 -0.367,-2.543 -1.094,-3.375 -0.73,-0.824 -1.711,-1.234 -2.937,-1.234 -1.231,0 -2.211,0.41 -2.938,1.234 -0.73,0.832 -1.094,1.957 -1.094,3.375 0,1.426 0.364,2.551 1.094,3.375 0.727,0.82 1.707,1.234 2.938,1.234 1.226,0 2.207,-0.414 2.937,-1.234 0.727,-0.824 1.094,-1.949 1.094,-3.375 z m -1.516,0 c 0,1.133 -0.226,1.973 -0.672,2.516 -0.437,0.55 -1.054,0.828 -1.843,0.828 -0.793,0 -1.414,-0.278 -1.86,-0.828 -0.437,-0.543 -0.656,-1.383 -0.656,-2.516 0,-1.094 0.219,-1.922 0.656,-2.484 0.446,-0.563 1.067,-0.844 1.86,-0.844 0.781,0 1.394,0.273 1.843,0.828 0.446,0.562 0.672,1.394 0.672,2.5 z"
         style="fill:#000000;fill-opacity:1;fill-rule:nonzero;stroke:none"
         id="path4968"
         inkscape:connector-curvature="0" /><path
         d="m 403.773,525.867 c 0,-0.793 -0.335,-1.449 -1,-1.969 -0.656,-0.511 -1.554,-0.765 -2.687,-0.765 -0.648,0 -1.242,0.078 -1.781,0.234 -0.543,0.156 -0.996,0.328 -1.36,0.516 l 0,1.64 0.078,0 c 0.469,-0.343 0.985,-0.621 1.547,-0.828 0.571,-0.211 1.118,-0.312 1.641,-0.312 0.644,0 1.148,0.101 1.516,0.312 0.363,0.207 0.546,0.535 0.546,0.985 0,0.343 -0.101,0.601 -0.296,0.781 -0.2,0.176 -0.579,0.328 -1.141,0.453 -0.211,0.051 -0.484,0.109 -0.828,0.172 -0.336,0.062 -0.637,0.129 -0.906,0.203 -0.774,0.195 -1.321,0.492 -1.641,0.891 -0.313,0.394 -0.469,0.879 -0.469,1.453 0,0.351 0.071,0.687 0.219,1 0.144,0.32 0.367,0.609 0.672,0.859 0.289,0.25 0.66,0.442 1.109,0.578 0.457,0.145 0.961,0.219 1.516,0.219 0.519,0 1.047,-0.062 1.578,-0.187 0.539,-0.125 0.988,-0.282 1.344,-0.469 l 0,-1.563 -0.078,0 c -0.375,0.27 -0.836,0.5 -1.375,0.688 -0.532,0.195 -1.059,0.297 -1.579,0.297 -0.531,0 -0.984,-0.106 -1.359,-0.313 -0.367,-0.211 -0.547,-0.515 -0.547,-0.922 0,-0.355 0.11,-0.625 0.328,-0.812 0.219,-0.18 0.571,-0.324 1.063,-0.438 0.269,-0.062 0.57,-0.125 0.906,-0.187 0.344,-0.063 0.625,-0.121 0.844,-0.172 0.687,-0.156 1.211,-0.43 1.578,-0.813 0.375,-0.386 0.562,-0.898 0.562,-1.531 z"
         style="fill:#000000;fill-opacity:1;fill-rule:nonzero;stroke:none"
         id="path4970"
         inkscape:connector-curvature="0" /><path
         d="m 407.461,533.539 -1.656,0 0,1.531 1.656,0 0,-1.531 z m -0.094,-10.187 -1.469,0 0,8.734 1.469,0 0,-8.734 z"
         style="fill:#000000;fill-opacity:1;fill-rule:nonzero;stroke:none"
         id="path4972"
         inkscape:connector-curvature="0" /><path
         d="m 416.461,525.867 c 0,-0.793 -0.336,-1.449 -1,-1.969 -0.656,-0.511 -1.555,-0.765 -2.688,-0.765 -0.648,0 -1.242,0.078 -1.781,0.234 -0.543,0.156 -0.996,0.328 -1.359,0.516 l 0,1.64 0.078,0 c 0.469,-0.343 0.984,-0.621 1.547,-0.828 0.57,-0.211 1.117,-0.312 1.64,-0.312 0.645,0 1.149,0.101 1.516,0.312 0.363,0.207 0.547,0.535 0.547,0.985 0,0.343 -0.102,0.601 -0.297,0.781 -0.199,0.176 -0.578,0.328 -1.141,0.453 -0.21,0.051 -0.484,0.109 -0.828,0.172 -0.336,0.062 -0.636,0.129 -0.906,0.203 -0.773,0.195 -1.32,0.492 -1.641,0.891 -0.312,0.394 -0.468,0.879 -0.468,1.453 0,0.351 0.07,0.687 0.218,1 0.145,0.32 0.368,0.609 0.672,0.859 0.289,0.25 0.66,0.442 1.11,0.578 0.457,0.145 0.961,0.219 1.515,0.219 0.52,0 1.047,-0.062 1.578,-0.187 0.54,-0.125 0.989,-0.282 1.344,-0.469 l 0,-1.563 -0.078,0 c -0.375,0.27 -0.836,0.5 -1.375,0.688 -0.531,0.195 -1.059,0.297 -1.578,0.297 -0.531,0 -0.984,-0.106 -1.359,-0.313 -0.368,-0.211 -0.547,-0.515 -0.547,-0.922 0,-0.355 0.109,-0.625 0.328,-0.812 0.219,-0.18 0.57,-0.324 1.062,-0.438 0.27,-0.062 0.571,-0.125 0.907,-0.187 0.343,-0.063 0.625,-0.121 0.843,-0.172 0.688,-0.156 1.211,-0.43 1.578,-0.813 0.375,-0.386 0.563,-0.898 0.563,-1.531 z"
         style="fill:#000000;fill-opacity:1;fill-rule:nonzero;stroke:none"
         id="path4974"
         inkscape:connector-curvature="0" /><path
         d="m 428.867,520.133 -1.797,0 c -0.918,1.055 -1.632,2.203 -2.14,3.453 -0.512,1.258 -0.766,2.672 -0.766,4.234 0,1.571 0.254,2.985 0.766,4.235 0.508,1.25 1.222,2.398 2.14,3.453 l 1.797,0 0,-0.078 c -0.429,-0.375 -0.836,-0.813 -1.219,-1.313 -0.375,-0.5 -0.73,-1.078 -1.062,-1.734 -0.313,-0.649 -0.57,-1.356 -0.766,-2.125 -0.187,-0.774 -0.281,-1.586 -0.281,-2.438 0,-0.886 0.094,-1.699 0.281,-2.437 0.188,-0.742 0.442,-1.449 0.766,-2.125 0.312,-0.633 0.664,-1.211 1.062,-1.735 0.407,-0.519 0.813,-0.957 1.219,-1.312 l 0,-0.078 z"
         style="fill:#000000;fill-opacity:1;fill-rule:nonzero;stroke:none"
         id="path4976"
         inkscape:connector-curvature="0" /><path
         d="m 440.758,523.352 -1.641,0 -1.14,3.25 -5.032,0 -1.14,-3.25 -1.578,0 4.234,11.64 2.062,0 4.235,-11.64 z m -3.266,4.578 -2.031,5.703 -2.047,-5.703 4.078,0 z"
         style="fill:#000000;fill-opacity:1;fill-rule:nonzero;stroke:none"
         id="path4978"
         inkscape:connector-curvature="0" /><path
         d="m 442.43,535.508 1.469,0 0,-12.156 -1.469,0 0,12.156 z"
         style="fill:#000000;fill-opacity:1;fill-rule:nonzero;stroke:none"
         id="path4980"
         inkscape:connector-curvature="0" /><path
         d="m 446.773,535.508 1.469,0 0,-12.156 -1.469,0 0,12.156 z"
         style="fill:#000000;fill-opacity:1;fill-rule:nonzero;stroke:none"
         id="path4982"
         inkscape:connector-curvature="0" /><path
         d="m 463.18,523.898 c -0.492,-0.23 -0.961,-0.414 -1.407,-0.546 -0.437,-0.133 -0.902,-0.204 -1.39,-0.204 -0.637,0 -1.219,0.094 -1.75,0.282 -0.524,0.187 -0.969,0.468 -1.344,0.843 -0.375,0.375 -0.668,0.848 -0.875,1.422 -0.211,0.571 -0.312,1.243 -0.312,2.016 0,1.426 0.39,2.547 1.171,3.359 0.782,0.813 1.817,1.219 3.11,1.219 0.5,0 0.988,-0.074 1.469,-0.219 0.476,-0.136 0.921,-0.308 1.328,-0.515 l 0,-1.625 -0.078,0 c -0.45,0.343 -0.914,0.609 -1.391,0.797 -0.481,0.187 -0.945,0.281 -1.391,0.281 -0.836,0 -1.496,-0.281 -1.984,-0.844 -0.481,-0.555 -0.719,-1.371 -0.719,-2.453 0,-1.055 0.235,-1.867 0.703,-2.438 0.477,-0.562 1.145,-0.843 2,-0.843 0.289,0 0.586,0.035 0.891,0.109 0.312,0.082 0.594,0.188 0.844,0.313 0.207,0.113 0.406,0.226 0.593,0.343 0.188,0.125 0.336,0.235 0.454,0.328 l 0.078,0 0,-1.625 z"
         style="fill:#000000;fill-opacity:1;fill-rule:nonzero;stroke:none"
         id="path4984"
         inkscape:connector-curvature="0" /><path
         d="m 472.508,527.711 c 0,-1.418 -0.367,-2.543 -1.094,-3.375 -0.73,-0.824 -1.711,-1.234 -2.937,-1.234 -1.231,0 -2.211,0.41 -2.938,1.234 -0.73,0.832 -1.094,1.957 -1.094,3.375 0,1.426 0.364,2.551 1.094,3.375 0.727,0.82 1.707,1.234 2.938,1.234 1.226,0 2.207,-0.414 2.937,-1.234 0.727,-0.824 1.094,-1.949 1.094,-3.375 z m -1.516,0 c 0,1.133 -0.226,1.973 -0.672,2.516 -0.437,0.55 -1.054,0.828 -1.843,0.828 -0.793,0 -1.414,-0.278 -1.86,-0.828 -0.437,-0.543 -0.656,-1.383 -0.656,-2.516 0,-1.094 0.219,-1.922 0.656,-2.484 0.446,-0.563 1.067,-0.844 1.86,-0.844 0.781,0 1.394,0.273 1.843,0.828 0.446,0.562 0.672,1.394 0.672,2.5 z"
         style="fill:#000000;fill-opacity:1;fill-rule:nonzero;stroke:none"
         id="path4986"
         inkscape:connector-curvature="0" /><path
         d="m 482.086,523.352 -1.469,0 0,4.968 c 0,0.407 -0.027,0.782 -0.078,1.125 -0.043,0.352 -0.125,0.629 -0.25,0.828 -0.137,0.219 -0.328,0.379 -0.578,0.485 -0.242,0.113 -0.555,0.172 -0.938,0.172 -0.406,0 -0.828,-0.102 -1.265,-0.297 -0.438,-0.199 -0.856,-0.453 -1.25,-0.766 l 0,-6.515 -1.469,0 0,8.734 1.469,0 0,-0.969 c 0.457,0.375 0.93,0.664 1.422,0.875 0.488,0.219 0.988,0.328 1.5,0.328 0.945,0 1.664,-0.289 2.156,-0.859 0.5,-0.563 0.75,-1.375 0.75,-2.438 l 0,-5.671 z"
         style="fill:#000000;fill-opacity:1;fill-rule:nonzero;stroke:none"
         id="path4988"
         inkscape:connector-curvature="0" /><path
         d="m 491.992,523.352 -1.469,0 0,0.921 c -0.429,-0.367 -0.871,-0.652 -1.328,-0.859 -0.461,-0.207 -0.953,-0.312 -1.484,-0.312 -1.043,0 -1.871,0.398 -2.484,1.203 -0.618,0.812 -0.922,1.925 -0.922,3.343 0,0.739 0.101,1.395 0.312,1.969 0.219,0.582 0.504,1.078 0.86,1.485 0.351,0.394 0.765,0.695 1.234,0.906 0.477,0.207 0.969,0.312 1.469,0.312 0.457,0 0.863,-0.047 1.218,-0.14 0.352,-0.094 0.727,-0.246 1.125,-0.453 l 0,3.781 1.469,0 0,-12.156 z m -1.469,2.156 0,5 c -0.398,0.176 -0.75,0.297 -1.062,0.359 -0.313,0.071 -0.656,0.11 -1.031,0.11 -0.825,0 -1.465,-0.289 -1.922,-0.86 -0.461,-0.574 -0.688,-1.387 -0.688,-2.437 0,-1.032 0.176,-1.821 0.532,-2.36 0.351,-0.543 0.921,-0.812 1.703,-0.812 0.414,0 0.836,0.094 1.265,0.281 0.426,0.188 0.828,0.426 1.203,0.719 z"
         style="fill:#000000;fill-opacity:1;fill-rule:nonzero;stroke:none"
         id="path4990"
         inkscape:connector-curvature="0" /><path
         d="m 496.461,533.539 -1.656,0 0,1.531 1.656,0 0,-1.531 z m -0.094,-10.187 -1.469,0 0,8.734 1.469,0 0,-8.734 z"
         style="fill:#000000;fill-opacity:1;fill-rule:nonzero;stroke:none"
         id="path4992"
         inkscape:connector-curvature="0" /><path
         d="m 503.758,523.43 c -0.281,-0.075 -0.586,-0.129 -0.906,-0.172 -0.325,-0.051 -0.618,-0.078 -0.875,-0.078 -0.887,0 -1.563,0.238 -2.032,0.718 -0.461,0.477 -0.687,1.25 -0.687,2.313 l 0,4.641 -1,0 0,1.234 1,0 0,2.5 1.469,0 0,-2.5 3.031,0 0,-1.234 -3.031,0 0,-3.985 c 0,-0.461 0.007,-0.82 0.031,-1.078 0.019,-0.25 0.094,-0.492 0.219,-0.719 0.113,-0.211 0.269,-0.359 0.468,-0.453 0.196,-0.094 0.504,-0.14 0.922,-0.14 0.238,0 0.488,0.031 0.75,0.093 0.258,0.071 0.446,0.133 0.563,0.188 l 0.078,0 0,-1.328 z"
         style="fill:#000000;fill-opacity:1;fill-rule:nonzero;stroke:none"
         id="path4994"
         inkscape:connector-curvature="0" /><path
         d="m 507.117,533.539 -1.656,0 0,1.531 1.656,0 0,-1.531 z m -0.094,-10.187 -1.468,0 0,8.734 1.468,0 0,-8.734 z"
         style="fill:#000000;fill-opacity:1;fill-rule:nonzero;stroke:none"
         id="path4996"
         inkscape:connector-curvature="0" /><path
         d="m 517.32,527.711 c 0,-1.418 -0.367,-2.543 -1.093,-3.375 -0.731,-0.824 -1.711,-1.234 -2.938,-1.234 -1.23,0 -2.211,0.41 -2.937,1.234 -0.731,0.832 -1.094,1.957 -1.094,3.375 0,1.426 0.363,2.551 1.094,3.375 0.726,0.82 1.707,1.234 2.937,1.234 1.227,0 2.207,-0.414 2.938,-1.234 0.726,-0.824 1.093,-1.949 1.093,-3.375 z m -1.515,0 c 0,1.133 -0.227,1.973 -0.672,2.516 -0.438,0.55 -1.055,0.828 -1.844,0.828 -0.793,0 -1.414,-0.278 -1.859,-0.828 -0.438,-0.543 -0.657,-1.383 -0.657,-2.516 0,-1.094 0.219,-1.922 0.657,-2.484 0.445,-0.563 1.066,-0.844 1.859,-0.844 0.781,0 1.395,0.273 1.844,0.828 0.445,0.562 0.672,1.394 0.672,2.5 z"
         style="fill:#000000;fill-opacity:1;fill-rule:nonzero;stroke:none"
         id="path4998"
         inkscape:connector-curvature="0" /><path
         d="m 526.898,523.352 -1.468,0 0,4.968 c 0,0.407 -0.028,0.782 -0.078,1.125 -0.043,0.352 -0.125,0.629 -0.25,0.828 -0.137,0.219 -0.329,0.379 -0.579,0.485 -0.242,0.113 -0.554,0.172 -0.937,0.172 -0.406,0 -0.828,-0.102 -1.266,-0.297 -0.437,-0.199 -0.855,-0.453 -1.25,-0.766 l 0,-6.515 -1.468,0 0,8.734 1.468,0 0,-0.969 c 0.457,0.375 0.93,0.664 1.422,0.875 0.488,0.219 0.988,0.328 1.5,0.328 0.946,0 1.664,-0.289 2.156,-0.859 0.5,-0.563 0.75,-1.375 0.75,-2.438 l 0,-5.671 z"
         style="fill:#000000;fill-opacity:1;fill-rule:nonzero;stroke:none"
         id="path5000"
         inkscape:connector-curvature="0" /><path
         d="m 535.961,525.867 c 0,-0.793 -0.336,-1.449 -1,-1.969 -0.656,-0.511 -1.555,-0.765 -2.688,-0.765 -0.648,0 -1.242,0.078 -1.781,0.234 -0.543,0.156 -0.996,0.328 -1.359,0.516 l 0,1.64 0.078,0 c 0.469,-0.343 0.984,-0.621 1.547,-0.828 0.57,-0.211 1.117,-0.312 1.64,-0.312 0.645,0 1.149,0.101 1.516,0.312 0.363,0.207 0.547,0.535 0.547,0.985 0,0.343 -0.102,0.601 -0.297,0.781 -0.199,0.176 -0.578,0.328 -1.141,0.453 -0.21,0.051 -0.484,0.109 -0.828,0.172 -0.336,0.062 -0.636,0.129 -0.906,0.203 -0.773,0.195 -1.32,0.492 -1.641,0.891 -0.312,0.394 -0.468,0.879 -0.468,1.453 0,0.351 0.07,0.687 0.218,1 0.145,0.32 0.368,0.609 0.672,0.859 0.289,0.25 0.66,0.442 1.11,0.578 0.457,0.145 0.961,0.219 1.515,0.219 0.52,0 1.047,-0.062 1.578,-0.187 0.54,-0.125 0.989,-0.282 1.344,-0.469 l 0,-1.563 -0.078,0 c -0.375,0.27 -0.836,0.5 -1.375,0.688 -0.531,0.195 -1.059,0.297 -1.578,0.297 -0.531,0 -0.984,-0.106 -1.359,-0.313 -0.368,-0.211 -0.547,-0.515 -0.547,-0.922 0,-0.355 0.109,-0.625 0.328,-0.812 0.219,-0.18 0.57,-0.324 1.062,-0.438 0.27,-0.062 0.571,-0.125 0.907,-0.187 0.343,-0.063 0.625,-0.121 0.843,-0.172 0.688,-0.156 1.211,-0.43 1.578,-0.813 0.375,-0.386 0.563,-0.898 0.563,-1.531 z"
         style="fill:#000000;fill-opacity:1;fill-rule:nonzero;stroke:none"
         id="path5002"
         inkscape:connector-curvature="0" /><path
         d="m 550.148,523.898 c -0.492,-0.23 -0.96,-0.414 -1.406,-0.546 -0.437,-0.133 -0.902,-0.204 -1.39,-0.204 -0.637,0 -1.219,0.094 -1.75,0.282 -0.524,0.187 -0.969,0.468 -1.344,0.843 -0.375,0.375 -0.668,0.848 -0.875,1.422 -0.211,0.571 -0.313,1.243 -0.313,2.016 0,1.426 0.391,2.547 1.172,3.359 0.781,0.813 1.817,1.219 3.11,1.219 0.5,0 0.988,-0.074 1.468,-0.219 0.477,-0.136 0.922,-0.308 1.328,-0.515 l 0,-1.625 -0.078,0 c -0.449,0.343 -0.914,0.609 -1.39,0.797 -0.481,0.187 -0.946,0.281 -1.391,0.281 -0.836,0 -1.496,-0.281 -1.984,-0.844 -0.481,-0.555 -0.719,-1.371 -0.719,-2.453 0,-1.055 0.234,-1.867 0.703,-2.438 0.477,-0.562 1.145,-0.843 2,-0.843 0.289,0 0.586,0.035 0.891,0.109 0.312,0.082 0.593,0.188 0.843,0.313 0.207,0.113 0.407,0.226 0.594,0.343 0.188,0.125 0.336,0.235 0.453,0.328 l 0.078,0 0,-1.625 z"
         style="fill:#000000;fill-opacity:1;fill-rule:nonzero;stroke:none"
         id="path5004"
         inkscape:connector-curvature="0" /><path
         d="m 559.477,527.711 c 0,-1.418 -0.368,-2.543 -1.094,-3.375 -0.731,-0.824 -1.711,-1.234 -2.938,-1.234 -1.23,0 -2.211,0.41 -2.937,1.234 -0.731,0.832 -1.094,1.957 -1.094,3.375 0,1.426 0.363,2.551 1.094,3.375 0.726,0.82 1.707,1.234 2.937,1.234 1.227,0 2.207,-0.414 2.938,-1.234 0.726,-0.824 1.094,-1.949 1.094,-3.375 z m -1.516,0 c 0,1.133 -0.227,1.973 -0.672,2.516 -0.437,0.55 -1.055,0.828 -1.844,0.828 -0.793,0 -1.414,-0.278 -1.859,-0.828 -0.438,-0.543 -0.656,-1.383 -0.656,-2.516 0,-1.094 0.218,-1.922 0.656,-2.484 0.445,-0.563 1.066,-0.844 1.859,-0.844 0.782,0 1.395,0.273 1.844,0.828 0.445,0.562 0.672,1.394 0.672,2.5 z"
         style="fill:#000000;fill-opacity:1;fill-rule:nonzero;stroke:none"
         id="path5006"
         inkscape:connector-curvature="0" /><path
         d="m 561.773,535.508 1.469,0 0,-12.156 -1.469,0 0,12.156 z"
         style="fill:#000000;fill-opacity:1;fill-rule:nonzero;stroke:none"
         id="path5008"
         inkscape:connector-curvature="0" /><path
         d="m 566.117,535.508 1.469,0 0,-12.156 -1.469,0 0,12.156 z"
         style="fill:#000000;fill-opacity:1;fill-rule:nonzero;stroke:none"
         id="path5010"
         inkscape:connector-curvature="0" /><path
         d="m 577.227,523.352 -1.469,0 0,0.937 c -0.125,-0.094 -0.305,-0.219 -0.531,-0.375 -0.219,-0.156 -0.434,-0.281 -0.641,-0.375 -0.242,-0.125 -0.523,-0.226 -0.844,-0.312 -0.312,-0.082 -0.683,-0.125 -1.109,-0.125 -0.793,0 -1.465,0.257 -2.016,0.781 -0.543,0.531 -0.812,1.195 -0.812,2 0,0.664 0.14,1.203 0.422,1.609 0.289,0.406 0.695,0.727 1.218,0.969 0.532,0.227 1.164,0.383 1.907,0.469 0.75,0.082 1.55,0.144 2.406,0.187 l 0,0.235 c 0,0.332 -0.059,0.609 -0.172,0.828 -0.117,0.218 -0.281,0.39 -0.5,0.515 -0.211,0.114 -0.461,0.192 -0.75,0.235 -0.293,0.039 -0.602,0.062 -0.922,0.062 -0.387,0 -0.82,-0.054 -1.297,-0.156 -0.469,-0.094 -0.953,-0.242 -1.453,-0.438 l -0.078,0 0,1.5 c 0.281,0.071 0.691,0.157 1.234,0.25 0.539,0.094 1.078,0.141 1.61,0.141 0.613,0 1.144,-0.055 1.593,-0.156 0.457,-0.094 0.852,-0.266 1.188,-0.516 0.332,-0.242 0.582,-0.554 0.75,-0.937 0.176,-0.375 0.266,-0.844 0.266,-1.407 l 0,-5.921 z m -1.469,2.156 0,2.422 c -0.449,-0.024 -0.977,-0.059 -1.578,-0.11 -0.606,-0.054 -1.086,-0.132 -1.438,-0.234 -0.429,-0.117 -0.773,-0.305 -1.031,-0.563 -0.262,-0.25 -0.391,-0.593 -0.391,-1.031 0,-0.5 0.149,-0.883 0.453,-1.14 0.301,-0.25 0.766,-0.375 1.391,-0.375 0.508,0 0.977,0.097 1.406,0.296 0.426,0.207 0.821,0.454 1.188,0.735 z"
         style="fill:#000000;fill-opacity:1;fill-rule:nonzero;stroke:none"
         id="path5012"
         inkscape:connector-curvature="0" /><path
         d="m 587.742,527.82 c 0,-0.711 -0.105,-1.355 -0.312,-1.937 -0.2,-0.586 -0.481,-1.078 -0.844,-1.485 -0.344,-0.386 -0.75,-0.687 -1.219,-0.906 -0.469,-0.207 -0.965,-0.312 -1.484,-0.312 -0.449,0 -0.86,0.054 -1.235,0.156 -0.367,0.094 -0.734,0.242 -1.109,0.453 l 0,-3.656 -1.469,0 0,11.953 1.469,0 0,-0.922 c 0.383,0.332 0.82,0.609 1.313,0.828 0.488,0.219 1.007,0.328 1.562,0.328 1.051,0 1.867,-0.398 2.453,-1.187 0.582,-0.793 0.875,-1.899 0.875,-3.313 z m -1.515,-0.031 c 0,1.051 -0.184,1.836 -0.547,2.359 -0.356,0.52 -0.903,0.782 -1.641,0.782 -0.43,0 -0.855,-0.094 -1.281,-0.282 -0.43,-0.179 -0.836,-0.418 -1.219,-0.718 l 0,-4.938 c 0.414,-0.187 0.77,-0.32 1.063,-0.39 0.3,-0.063 0.644,-0.094 1.031,-0.094 0.812,0 1.445,0.273 1.906,0.828 0.457,0.551 0.688,1.367 0.688,2.453 z"
         style="fill:#000000;fill-opacity:1;fill-rule:nonzero;stroke:none"
         id="path5014"
         inkscape:connector-curvature="0" /><path
         d="m 596.273,525.867 c 0,-0.793 -0.335,-1.449 -1,-1.969 -0.656,-0.511 -1.554,-0.765 -2.687,-0.765 -0.648,0 -1.242,0.078 -1.781,0.234 -0.543,0.156 -0.996,0.328 -1.36,0.516 l 0,1.64 0.078,0 c 0.469,-0.343 0.985,-0.621 1.547,-0.828 0.571,-0.211 1.118,-0.312 1.641,-0.312 0.644,0 1.148,0.101 1.516,0.312 0.363,0.207 0.546,0.535 0.546,0.985 0,0.343 -0.101,0.601 -0.296,0.781 -0.2,0.176 -0.579,0.328 -1.141,0.453 -0.211,0.051 -0.484,0.109 -0.828,0.172 -0.336,0.062 -0.637,0.129 -0.906,0.203 -0.774,0.195 -1.321,0.492 -1.641,0.891 -0.313,0.394 -0.469,0.879 -0.469,1.453 0,0.351 0.071,0.687 0.219,1 0.144,0.32 0.367,0.609 0.672,0.859 0.289,0.25 0.66,0.442 1.109,0.578 0.457,0.145 0.961,0.219 1.516,0.219 0.519,0 1.047,-0.062 1.578,-0.187 0.539,-0.125 0.988,-0.282 1.344,-0.469 l 0,-1.563 -0.078,0 c -0.375,0.27 -0.836,0.5 -1.375,0.688 -0.532,0.195 -1.059,0.297 -1.579,0.297 -0.531,0 -0.984,-0.106 -1.359,-0.313 -0.367,-0.211 -0.547,-0.515 -0.547,-0.922 0,-0.355 0.11,-0.625 0.328,-0.812 0.219,-0.18 0.571,-0.324 1.063,-0.438 0.269,-0.062 0.57,-0.125 0.906,-0.187 0.344,-0.063 0.625,-0.121 0.844,-0.172 0.687,-0.156 1.211,-0.43 1.578,-0.813 0.375,-0.386 0.562,-0.898 0.562,-1.531 z"
         style="fill:#000000;fill-opacity:1;fill-rule:nonzero;stroke:none"
         id="path5016"
         inkscape:connector-curvature="0" /><path
         d="m 605.68,527.57 -6.422,0 c 0,-0.543 0.078,-1.011 0.234,-1.406 0.164,-0.398 0.391,-0.726 0.672,-0.984 0.27,-0.25 0.586,-0.438 0.953,-0.563 0.375,-0.125 0.785,-0.187 1.235,-0.187 0.593,0 1.191,0.117 1.796,0.359 0.602,0.238 1.032,0.473 1.282,0.703 l 0.078,0 0,-1.609 c -0.492,-0.211 -0.996,-0.387 -1.516,-0.531 -0.512,-0.133 -1.054,-0.204 -1.625,-0.204 -1.449,0 -2.578,0.391 -3.39,1.172 -0.813,0.789 -1.219,1.907 -1.219,3.344 0,1.426 0.39,2.555 1.172,3.391 0.781,0.843 1.804,1.265 3.078,1.265 1.176,0 2.082,-0.343 2.719,-1.031 0.632,-0.687 0.953,-1.664 0.953,-2.922 l 0,-0.797 z m -1.422,1.125 c -0.012,0.77 -0.211,1.364 -0.594,1.782 -0.375,0.425 -0.953,0.64 -1.734,0.64 -0.793,0 -1.422,-0.234 -1.891,-0.703 -0.461,-0.461 -0.719,-1.031 -0.781,-1.719 l 5,0 z"
         style="fill:#000000;fill-opacity:1;fill-rule:nonzero;stroke:none"
         id="path5018"
         inkscape:connector-curvature="0" /><path
         d="m 614.992,523.352 -1.469,0 0,0.921 c -0.429,-0.367 -0.871,-0.652 -1.328,-0.859 -0.461,-0.207 -0.953,-0.312 -1.484,-0.312 -1.043,0 -1.871,0.398 -2.484,1.203 -0.618,0.812 -0.922,1.925 -0.922,3.343 0,0.739 0.101,1.395 0.312,1.969 0.219,0.582 0.504,1.078 0.86,1.485 0.351,0.394 0.765,0.695 1.234,0.906 0.477,0.207 0.969,0.312 1.469,0.312 0.457,0 0.863,-0.047 1.218,-0.14 0.352,-0.094 0.727,-0.246 1.125,-0.453 l 0,3.781 1.469,0 0,-12.156 z m -1.469,2.156 0,5 c -0.398,0.176 -0.75,0.297 -1.062,0.359 -0.313,0.071 -0.656,0.11 -1.031,0.11 -0.825,0 -1.465,-0.289 -1.922,-0.86 -0.461,-0.574 -0.688,-1.387 -0.688,-2.437 0,-1.032 0.176,-1.821 0.532,-2.36 0.351,-0.543 0.921,-0.812 1.703,-0.812 0.414,0 0.836,0.094 1.265,0.281 0.426,0.188 0.828,0.426 1.203,0.719 z"
         style="fill:#000000;fill-opacity:1;fill-rule:nonzero;stroke:none"
         id="path5020"
         inkscape:connector-curvature="0" /><path
         d="m 622.289,527.82 c 0,-1.562 -0.258,-2.976 -0.766,-4.234 -0.511,-1.25 -1.23,-2.398 -2.156,-3.453 l -1.781,0 0,0.078 c 0.394,0.355 0.797,0.793 1.203,1.312 0.406,0.524 0.758,1.102 1.063,1.735 0.32,0.676 0.578,1.383 0.765,2.125 0.196,0.738 0.297,1.551 0.297,2.437 0,0.852 -0.101,1.664 -0.297,2.438 -0.187,0.769 -0.445,1.476 -0.765,2.125 -0.325,0.656 -0.68,1.234 -1.063,1.734 -0.387,0.5 -0.789,0.938 -1.203,1.313 l 0,0.078 1.781,0 c 0.926,-1.055 1.645,-2.203 2.156,-3.453 0.508,-1.25 0.766,-2.664 0.766,-4.235 z"
         style="fill:#000000;fill-opacity:1;fill-rule:nonzero;stroke:none"
         id="path5022"
         inkscape:connector-curvature="0" /><path
         d="m 385.246,220.422 -7.672,0 0,11.641 7.672,0 0,-1.375 -6.125,0 0,-3.188 6.125,0 0,-1.375 -6.125,0 0,-4.328 6.125,0 0,-1.375 z"
         style="fill:#000000;fill-opacity:1;fill-rule:nonzero;stroke:none"
         id="path5110"
         inkscape:connector-curvature="0" /><path
         d="m 392.277,231.156 -0.078,0 c -0.156,0.051 -0.367,0.098 -0.625,0.141 -0.261,0.051 -0.492,0.078 -0.687,0.078 -0.637,0 -1.094,-0.141 -1.375,-0.422 -0.282,-0.273 -0.422,-0.773 -0.422,-1.5 l 0,-0.297 2.64,0 0,-1.234 -2.593,0 0,-7.5 -1.469,0 0,7.5 -1,0 0,1.234 1,0 0,0.282 c 0,1.039 0.254,1.835 0.766,2.39 0.519,0.551 1.265,0.828 2.234,0.828 0.332,0 0.629,-0.015 0.891,-0.047 0.257,-0.031 0.5,-0.07 0.718,-0.109 l 0,-1.344 z"
         style="fill:#000000;fill-opacity:1;fill-rule:nonzero;stroke:none"
         id="path5112"
         inkscape:connector-curvature="0" /><path
         d="m 397.902,231.156 -0.078,0 c -0.156,0.051 -0.367,0.098 -0.625,0.141 -0.261,0.051 -0.492,0.078 -0.687,0.078 -0.637,0 -1.094,-0.141 -1.375,-0.422 -0.282,-0.273 -0.422,-0.773 -0.422,-1.5 l 0,-0.297 2.64,0 0,-1.234 -2.593,0 0,-7.5 -1.469,0 0,7.5 -1,0 0,1.234 1,0 0,0.282 c 0,1.039 0.254,1.835 0.766,2.39 0.519,0.551 1.265,0.828 2.234,0.828 0.332,0 0.629,-0.015 0.891,-0.047 0.257,-0.031 0.5,-0.07 0.718,-0.109 l 0,-1.344 z"
         style="fill:#000000;fill-opacity:1;fill-rule:nonzero;stroke:none"
         id="path5114"
         inkscape:connector-curvature="0" /><path
         d="m 406.137,224.641 -6.422,0 c 0,-0.543 0.078,-1.012 0.234,-1.407 0.164,-0.398 0.391,-0.726 0.672,-0.984 0.27,-0.25 0.586,-0.437 0.953,-0.562 0.375,-0.125 0.785,-0.188 1.235,-0.188 0.593,0 1.191,0.117 1.796,0.359 0.602,0.239 1.032,0.473 1.282,0.704 l 0.078,0 0,-1.61 c -0.492,-0.211 -0.996,-0.387 -1.516,-0.531 -0.511,-0.133 -1.054,-0.203 -1.625,-0.203 -1.449,0 -2.578,0.39 -3.39,1.172 -0.813,0.789 -1.219,1.906 -1.219,3.343 0,1.426 0.39,2.555 1.172,3.391 0.781,0.844 1.804,1.266 3.078,1.266 1.176,0 2.082,-0.344 2.719,-1.032 0.632,-0.687 0.953,-1.664 0.953,-2.921 l 0,-0.797 z m -1.422,1.125 c -0.012,0.769 -0.211,1.363 -0.594,1.781 -0.375,0.426 -0.953,0.641 -1.734,0.641 -0.793,0 -1.422,-0.235 -1.891,-0.704 -0.461,-0.461 -0.719,-1.031 -0.781,-1.718 l 5,0 z"
         style="fill:#000000;fill-opacity:1;fill-rule:nonzero;stroke:none"
         id="path5116"
         inkscape:connector-curvature="0" /><path
         d="m 414.824,220.969 c -0.492,-0.231 -0.961,-0.414 -1.406,-0.547 -0.438,-0.133 -0.902,-0.203 -1.391,-0.203 -0.636,0 -1.218,0.094 -1.75,0.281 -0.523,0.188 -0.968,0.469 -1.343,0.844 -0.375,0.375 -0.668,0.847 -0.875,1.422 -0.211,0.57 -0.313,1.242 -0.313,2.015 0,1.426 0.391,2.547 1.172,3.36 0.781,0.812 1.816,1.218 3.109,1.218 0.5,0 0.989,-0.074 1.469,-0.218 0.477,-0.137 0.922,-0.309 1.328,-0.516 l 0,-1.625 -0.078,0 c -0.449,0.344 -0.914,0.609 -1.391,0.797 -0.48,0.187 -0.945,0.281 -1.39,0.281 -0.836,0 -1.496,-0.281 -1.985,-0.844 -0.48,-0.554 -0.718,-1.371 -0.718,-2.453 0,-1.054 0.234,-1.867 0.703,-2.437 0.476,-0.563 1.144,-0.844 2,-0.844 0.289,0 0.586,0.035 0.89,0.109 0.313,0.082 0.594,0.188 0.844,0.313 0.207,0.113 0.406,0.226 0.594,0.344 0.187,0.125 0.336,0.234 0.453,0.328 l 0.078,0 0,-1.625 z"
         style="fill:#000000;fill-opacity:1;fill-rule:nonzero;stroke:none"
         id="path5118"
         inkscape:connector-curvature="0" /><path
         d="m 421.246,220.5 c -0.281,-0.074 -0.586,-0.129 -0.906,-0.172 -0.324,-0.051 -0.617,-0.078 -0.875,-0.078 -0.887,0 -1.563,0.238 -2.031,0.719 -0.461,0.476 -0.688,1.25 -0.688,2.312 l 0,4.641 -1,0 0,1.234 1,0 0,2.5 1.469,0 0,-2.5 3.031,0 0,-1.234 -3.031,0 0,-3.984 c 0,-0.461 0.008,-0.821 0.031,-1.079 0.02,-0.25 0.094,-0.492 0.219,-0.718 0.113,-0.211 0.269,-0.36 0.469,-0.453 0.195,-0.094 0.504,-0.141 0.921,-0.141 0.239,0 0.489,0.031 0.75,0.094 0.258,0.07 0.446,0.132 0.563,0.187 l 0.078,0 0,-1.328 z"
         style="fill:#000000;fill-opacity:1;fill-rule:nonzero;stroke:none"
         id="path5120"
         inkscape:connector-curvature="0" /><path
         d="m 429.262,222.938 c 0,-0.793 -0.336,-1.45 -1,-1.969 -0.657,-0.512 -1.555,-0.766 -2.688,-0.766 -0.648,0 -1.242,0.078 -1.781,0.235 -0.543,0.156 -0.996,0.328 -1.359,0.515 l 0,1.641 0.078,0 c 0.468,-0.344 0.984,-0.621 1.547,-0.828 0.57,-0.211 1.117,-0.313 1.64,-0.313 0.645,0 1.149,0.102 1.516,0.313 0.363,0.207 0.547,0.535 0.547,0.984 0,0.344 -0.102,0.602 -0.297,0.781 -0.199,0.176 -0.578,0.328 -1.141,0.453 -0.211,0.051 -0.484,0.11 -0.828,0.172 -0.336,0.063 -0.637,0.129 -0.906,0.203 -0.774,0.196 -1.32,0.493 -1.641,0.891 -0.312,0.395 -0.469,0.879 -0.469,1.453 0,0.352 0.071,0.688 0.219,1 0.145,0.32 0.367,0.61 0.672,0.86 0.289,0.25 0.66,0.441 1.109,0.578 0.458,0.144 0.961,0.218 1.516,0.218 0.52,0 1.047,-0.062 1.578,-0.187 0.539,-0.125 0.989,-0.281 1.344,-0.469 l 0,-1.562 -0.078,0 c -0.375,0.269 -0.836,0.5 -1.375,0.687 -0.531,0.195 -1.059,0.297 -1.578,0.297 -0.532,0 -0.985,-0.105 -1.36,-0.312 -0.367,-0.211 -0.547,-0.516 -0.547,-0.922 0,-0.356 0.11,-0.625 0.329,-0.813 0.218,-0.18 0.57,-0.324 1.062,-0.437 0.27,-0.063 0.57,-0.125 0.906,-0.188 0.344,-0.062 0.625,-0.121 0.844,-0.172 0.688,-0.156 1.211,-0.429 1.578,-0.812 0.375,-0.387 0.563,-0.899 0.563,-1.531 z"
         style="fill:#000000;fill-opacity:1;fill-rule:nonzero;stroke:none"
         id="path5122"
         inkscape:connector-curvature="0" /><path
         d="m 434.496,226.922 -1.875,0 0,2.234 1.875,0 0,-2.234 z m 0,-6.5 -1.875,0 0,2.234 1.875,0 0,-2.234 z"
         style="fill:#000000;fill-opacity:1;fill-rule:nonzero;stroke:none"
         id="path5124"
         inkscape:connector-curvature="0" /><path
         d="m 384.934,200.422 -7.36,0 0,11.641 1.547,0 0,-10.266 5.813,0 0,-1.375 z"
         style="fill:#000000;fill-opacity:1;fill-rule:nonzero;stroke:none"
         id="path5126"
         inkscape:connector-curvature="0" /><path
         d="m 393.152,200.422 -1.468,0 0,0.937 c -0.125,-0.093 -0.305,-0.218 -0.532,-0.375 -0.218,-0.156 -0.433,-0.281 -0.64,-0.375 -0.242,-0.125 -0.524,-0.226 -0.844,-0.312 -0.313,-0.082 -0.684,-0.125 -1.109,-0.125 -0.793,0 -1.465,0.258 -2.016,0.781 -0.543,0.531 -0.813,1.195 -0.813,2 0,0.664 0.141,1.203 0.422,1.61 0.289,0.406 0.696,0.726 1.219,0.968 0.531,0.227 1.164,0.383 1.906,0.469 0.75,0.082 1.551,0.145 2.407,0.188 l 0,0.234 c 0,0.332 -0.059,0.609 -0.172,0.828 -0.117,0.219 -0.282,0.391 -0.5,0.516 -0.211,0.113 -0.461,0.191 -0.75,0.234 -0.293,0.039 -0.602,0.063 -0.922,0.063 -0.387,0 -0.82,-0.055 -1.297,-0.157 -0.469,-0.093 -0.953,-0.242 -1.453,-0.437 l -0.078,0 0,1.5 c 0.281,0.07 0.691,0.156 1.234,0.25 0.539,0.094 1.078,0.14 1.609,0.14 0.614,0 1.145,-0.054 1.594,-0.156 0.457,-0.094 0.852,-0.265 1.188,-0.515 0.332,-0.243 0.582,-0.555 0.75,-0.938 0.176,-0.375 0.265,-0.844 0.265,-1.406 l 0,-5.922 z m -1.468,2.156 0,2.422 c -0.45,-0.023 -0.977,-0.059 -1.579,-0.109 -0.605,-0.055 -1.085,-0.133 -1.437,-0.235 -0.43,-0.117 -0.773,-0.304 -1.031,-0.562 -0.262,-0.25 -0.391,-0.594 -0.391,-1.031 0,-0.5 0.149,-0.883 0.453,-1.141 0.301,-0.25 0.766,-0.375 1.391,-0.375 0.508,0 0.976,0.098 1.406,0.297 0.426,0.207 0.82,0.453 1.188,0.734 z"
         style="fill:#000000;fill-opacity:1;fill-rule:nonzero;stroke:none"
         id="path5128"
         inkscape:connector-curvature="0" /><path
         d="m 403.074,201.422 c 0,-1.488 -0.34,-2.578 -1.015,-3.266 -0.668,-0.695 -1.7,-1.047 -3.094,-1.047 -0.469,0 -0.922,0.039 -1.36,0.11 -0.437,0.062 -0.871,0.152 -1.296,0.265 l 0,1.5 0.078,0 c 0.238,-0.093 0.617,-0.207 1.14,-0.343 0.52,-0.133 1.039,-0.203 1.563,-0.203 0.5,0 0.91,0.062 1.234,0.187 0.332,0.117 0.586,0.277 0.766,0.484 0.187,0.211 0.316,0.461 0.39,0.75 0.083,0.282 0.125,0.598 0.125,0.954 l 0,0.796 c -0.449,-0.355 -0.875,-0.621 -1.281,-0.796 -0.398,-0.168 -0.906,-0.25 -1.531,-0.25 -1.043,0 -1.871,0.375 -2.484,1.125 -0.618,0.75 -0.922,1.812 -0.922,3.187 0,0.75 0.101,1.395 0.312,1.938 0.219,0.539 0.508,1.007 0.875,1.406 0.332,0.375 0.739,0.66 1.219,0.859 0.488,0.207 0.973,0.313 1.453,0.313 0.508,0 0.93,-0.055 1.266,-0.157 0.343,-0.093 0.707,-0.246 1.093,-0.453 l 0.094,0.375 1.375,0 0,-7.734 z m -1.469,1.406 0,4.75 c -0.398,0.176 -0.761,0.301 -1.093,0.375 -0.336,0.082 -0.668,0.125 -1,0.125 -0.813,0 -1.453,-0.273 -1.922,-0.812 -0.461,-0.543 -0.688,-1.328 -0.688,-2.36 0,-0.98 0.172,-1.726 0.516,-2.234 0.344,-0.5 0.914,-0.75 1.719,-0.75 0.426,0 0.851,0.078 1.281,0.234 0.426,0.164 0.82,0.391 1.187,0.672 z"
         style="fill:#000000;fill-opacity:1;fill-rule:nonzero;stroke:none"
         id="path5130"
         inkscape:connector-curvature="0" /><path
         d="m 419.027,207.359 -0.5,-0.859 -2.828,1.656 0.047,-2.812 -1.016,0 0.047,2.812 -2.828,-1.672 -0.5,0.86 2.969,1.625 -2.969,1.609 0.5,0.86 2.828,-1.657 -0.047,2.797 1.016,0 -0.062,-2.797 2.843,1.657 0.5,-0.86 -2.968,-1.609 2.968,-1.61 z"
         style="fill:#000000;fill-opacity:1;fill-rule:nonzero;stroke:none"
         id="path5132"
         inkscape:connector-curvature="0" /><path
         d="m 429.215,207.359 -0.5,-0.859 -2.828,1.656 0.047,-2.812 -1.016,0 0.047,2.812 -2.828,-1.672 -0.5,0.86 2.968,1.625 -2.968,1.609 0.5,0.86 2.828,-1.657 -0.047,2.797 1.016,0 -0.063,-2.797 2.844,1.657 0.5,-0.86 -2.969,-1.609 2.969,-1.61 z"
         style="fill:#000000;fill-opacity:1;fill-rule:nonzero;stroke:none"
         id="path5134"
         inkscape:connector-curvature="0" /><path
         d="m 439.402,207.359 -0.5,-0.859 -2.828,1.656 0.047,-2.812 -1.016,0 0.047,2.812 -2.828,-1.672 -0.5,0.86 2.969,1.625 -2.969,1.609 0.5,0.86 2.828,-1.657 -0.047,2.797 1.016,0 -0.062,-2.797 2.843,1.657 0.5,-0.86 -2.968,-1.609 2.968,-1.61 z"
         style="fill:#000000;fill-opacity:1;fill-rule:nonzero;stroke:none"
         id="path5136"
         inkscape:connector-curvature="0" /><path
         d="m 385.871,190.688 -4.156,0 0,-10.266 -1.547,0 0,10.266 -4.156,0 0,1.375 9.859,0 0,-1.375 z"
         style="fill:#000000;fill-opacity:1;fill-rule:nonzero;stroke:none"
         id="path5138"
         inkscape:connector-curvature="0" /><path
         d="m 395.027,180.422 -7.875,0 0,1.641 c 0.539,0.468 1.086,0.937 1.641,1.406 0.551,0.469 1.062,0.929 1.531,1.39 1,0.969 1.68,1.739 2.047,2.313 0.375,0.57 0.563,1.187 0.563,1.844 0,0.601 -0.2,1.078 -0.594,1.422 -0.399,0.343 -0.953,0.515 -1.672,0.515 -0.469,0 -0.98,-0.086 -1.531,-0.25 -0.555,-0.168 -1.094,-0.422 -1.625,-0.765 l -0.078,0 0,1.64 c 0.375,0.176 0.867,0.336 1.484,0.485 0.613,0.156 1.211,0.234 1.797,0.234 1.187,0 2.117,-0.289 2.797,-0.859 0.676,-0.575 1.015,-1.356 1.015,-2.344 0,-0.438 -0.058,-0.852 -0.172,-1.235 -0.105,-0.386 -0.265,-0.75 -0.484,-1.093 -0.211,-0.325 -0.449,-0.641 -0.719,-0.953 -0.273,-0.313 -0.605,-0.657 -1,-1.032 -0.554,-0.554 -1.125,-1.086 -1.718,-1.593 -0.594,-0.512 -1.153,-0.985 -1.672,-1.422 l 6.265,0 0,-1.344 z"
         style="fill:#000000;fill-opacity:1;fill-rule:nonzero;stroke:none"
         id="path5140"
         inkscape:connector-curvature="0" /><path
         d="m 421.84,187.359 -0.5,-0.859 -2.828,1.656 0.047,-2.812 -1.016,0 0.047,2.812 -2.828,-1.672 -0.5,0.86 2.968,1.625 -2.968,1.609 0.5,0.86 2.828,-1.657 -0.047,2.797 1.016,0 -0.063,-2.797 2.844,1.657 0.5,-0.86 -2.969,-1.609 2.969,-1.61 z"
         style="fill:#000000;fill-opacity:1;fill-rule:nonzero;stroke:none"
         id="path5142"
         inkscape:connector-curvature="0" /><path
         d="m 432.027,187.359 -0.5,-0.859 -2.828,1.656 0.047,-2.812 -1.016,0 0.047,2.812 -2.828,-1.672 -0.5,0.86 2.969,1.625 -2.969,1.609 0.5,0.86 2.828,-1.657 -0.047,2.797 1.016,0 -0.062,-2.797 2.843,1.657 0.5,-0.86 -2.968,-1.609 2.968,-1.61 z"
         style="fill:#000000;fill-opacity:1;fill-rule:nonzero;stroke:none"
         id="path5144"
         inkscape:connector-curvature="0" /><path
         d="m 442.215,187.359 -0.5,-0.859 -2.828,1.656 0.047,-2.812 -1.016,0 0.047,2.812 -2.828,-1.672 -0.5,0.86 2.968,1.625 -2.968,1.609 0.5,0.86 2.828,-1.657 -0.047,2.797 1.016,0 -0.063,-2.797 2.844,1.657 0.5,-0.86 -2.969,-1.609 2.969,-1.61 z"
         style="fill:#000000;fill-opacity:1;fill-rule:nonzero;stroke:none"
         id="path5146"
         inkscape:connector-curvature="0" /><path
         d="m 384.934,160.422 -7.36,0 0,11.641 1.547,0 0,-10.266 5.813,0 0,-1.375 z"
         style="fill:#000000;fill-opacity:1;fill-rule:nonzero;stroke:none"
         id="path5148"
         inkscape:connector-curvature="0" /><path
         d="m 393.152,160.422 -1.468,0 0,0.937 c -0.125,-0.093 -0.305,-0.218 -0.532,-0.375 -0.218,-0.156 -0.433,-0.281 -0.64,-0.375 -0.242,-0.125 -0.524,-0.226 -0.844,-0.312 -0.313,-0.082 -0.684,-0.125 -1.109,-0.125 -0.793,0 -1.465,0.258 -2.016,0.781 -0.543,0.531 -0.813,1.195 -0.813,2 0,0.664 0.141,1.203 0.422,1.61 0.289,0.406 0.696,0.726 1.219,0.968 0.531,0.227 1.164,0.383 1.906,0.469 0.75,0.082 1.551,0.145 2.407,0.188 l 0,0.234 c 0,0.332 -0.059,0.609 -0.172,0.828 -0.117,0.219 -0.282,0.391 -0.5,0.516 -0.211,0.113 -0.461,0.191 -0.75,0.234 -0.293,0.039 -0.602,0.063 -0.922,0.063 -0.387,0 -0.82,-0.055 -1.297,-0.157 -0.469,-0.093 -0.953,-0.242 -1.453,-0.437 l -0.078,0 0,1.5 c 0.281,0.07 0.691,0.156 1.234,0.25 0.539,0.094 1.078,0.14 1.609,0.14 0.614,0 1.145,-0.054 1.594,-0.156 0.457,-0.094 0.852,-0.265 1.188,-0.515 0.332,-0.243 0.582,-0.555 0.75,-0.938 0.176,-0.375 0.265,-0.844 0.265,-1.406 l 0,-5.922 z m -1.468,2.156 0,2.422 c -0.45,-0.023 -0.977,-0.059 -1.579,-0.109 -0.605,-0.055 -1.085,-0.133 -1.437,-0.235 -0.43,-0.117 -0.773,-0.304 -1.031,-0.562 -0.262,-0.25 -0.391,-0.594 -0.391,-1.031 0,-0.5 0.149,-0.883 0.453,-1.141 0.301,-0.25 0.766,-0.375 1.391,-0.375 0.508,0 0.976,0.098 1.406,0.297 0.426,0.207 0.82,0.453 1.188,0.734 z"
         style="fill:#000000;fill-opacity:1;fill-rule:nonzero;stroke:none"
         id="path5150"
         inkscape:connector-curvature="0" /><path
         d="m 403.074,161.422 c 0,-1.488 -0.34,-2.578 -1.015,-3.266 -0.668,-0.695 -1.7,-1.047 -3.094,-1.047 -0.469,0 -0.922,0.039 -1.36,0.11 -0.437,0.062 -0.871,0.152 -1.296,0.265 l 0,1.5 0.078,0 c 0.238,-0.093 0.617,-0.207 1.14,-0.343 0.52,-0.133 1.039,-0.203 1.563,-0.203 0.5,0 0.91,0.062 1.234,0.187 0.332,0.117 0.586,0.277 0.766,0.484 0.187,0.211 0.316,0.461 0.39,0.75 0.083,0.282 0.125,0.598 0.125,0.954 l 0,0.796 c -0.449,-0.355 -0.875,-0.621 -1.281,-0.796 -0.398,-0.168 -0.906,-0.25 -1.531,-0.25 -1.043,0 -1.871,0.375 -2.484,1.125 -0.618,0.75 -0.922,1.812 -0.922,3.187 0,0.75 0.101,1.395 0.312,1.938 0.219,0.539 0.508,1.007 0.875,1.406 0.332,0.375 0.739,0.66 1.219,0.859 0.488,0.207 0.973,0.313 1.453,0.313 0.508,0 0.93,-0.055 1.266,-0.157 0.343,-0.093 0.707,-0.246 1.093,-0.453 l 0.094,0.375 1.375,0 0,-7.734 z m -1.469,1.406 0,4.75 c -0.398,0.176 -0.761,0.301 -1.093,0.375 -0.336,0.082 -0.668,0.125 -1,0.125 -0.813,0 -1.453,-0.273 -1.922,-0.812 -0.461,-0.543 -0.688,-1.328 -0.688,-2.36 0,-0.98 0.172,-1.726 0.516,-2.234 0.344,-0.5 0.914,-0.75 1.719,-0.75 0.426,0 0.851,0.078 1.281,0.234 0.426,0.164 0.82,0.391 1.187,0.672 z"
         style="fill:#000000;fill-opacity:1;fill-rule:nonzero;stroke:none"
         id="path5152"
         inkscape:connector-curvature="0" /><path
         d="m 419.137,160.422 -1.844,0 -2.484,3.359 -2.485,-3.359 -1.719,0 3.407,4.359 -3.375,4.375 1.859,0 2.453,-3.297 2.469,3.297 1.719,0 -3.422,-4.297 3.422,-4.437 z"
         style="fill:#000000;fill-opacity:1;fill-rule:nonzero;stroke:none"
         id="path5154"
         inkscape:connector-curvature="0" /><path
         d="m 435.09,170.688 -4.156,0 0,-10.266 -1.547,0 0,10.266 -4.157,0 0,1.375 9.86,0 0,-1.375 z"
         style="fill:#000000;fill-opacity:1;fill-rule:nonzero;stroke:none"
         id="path5156"
         inkscape:connector-curvature="0" /><path
         d="m 444.246,160.422 -7.875,0 0,1.641 c 0.539,0.468 1.086,0.937 1.641,1.406 0.551,0.469 1.062,0.929 1.531,1.39 1,0.969 1.68,1.739 2.047,2.313 0.375,0.57 0.562,1.187 0.562,1.844 0,0.601 -0.199,1.078 -0.593,1.422 -0.399,0.343 -0.954,0.515 -1.672,0.515 -0.469,0 -0.981,-0.086 -1.532,-0.25 -0.554,-0.168 -1.093,-0.422 -1.625,-0.765 l -0.078,0 0,1.64 c 0.375,0.176 0.868,0.336 1.485,0.485 0.613,0.156 1.211,0.234 1.797,0.234 1.187,0 2.117,-0.289 2.796,-0.859 0.676,-0.575 1.016,-1.356 1.016,-2.344 0,-0.438 -0.058,-0.852 -0.172,-1.235 -0.105,-0.386 -0.265,-0.75 -0.484,-1.093 -0.211,-0.325 -0.449,-0.641 -0.719,-0.953 -0.273,-0.313 -0.605,-0.657 -1,-1.032 -0.555,-0.554 -1.125,-1.086 -1.719,-1.593 -0.593,-0.512 -1.152,-0.985 -1.672,-1.422 l 6.266,0 0,-1.344 z"
         style="fill:#000000;fill-opacity:1;fill-rule:nonzero;stroke:none"
         id="path5158"
         inkscape:connector-curvature="0" /><path
         d="m 465.668,164.891 c 0,-0.711 -0.105,-1.356 -0.313,-1.938 -0.199,-0.586 -0.48,-1.078 -0.843,-1.484 -0.344,-0.387 -0.75,-0.688 -1.219,-0.906 -0.469,-0.208 -0.965,-0.313 -1.484,-0.313 -0.45,0 -0.86,0.055 -1.235,0.156 -0.367,0.094 -0.734,0.242 -1.109,0.453 l 0,-3.656 -1.469,0 0,11.953 1.469,0 0,-0.922 c 0.383,0.332 0.82,0.61 1.312,0.829 0.489,0.218 1.008,0.328 1.563,0.328 1.051,0 1.867,-0.399 2.453,-1.188 0.582,-0.793 0.875,-1.898 0.875,-3.312 z m -1.516,-0.032 c 0,1.051 -0.183,1.836 -0.547,2.36 -0.355,0.519 -0.902,0.781 -1.64,0.781 -0.43,0 -0.856,-0.094 -1.281,-0.281 -0.43,-0.18 -0.836,-0.418 -1.219,-0.719 l 0,-4.937 c 0.414,-0.188 0.769,-0.321 1.062,-0.391 0.301,-0.063 0.645,-0.094 1.032,-0.094 0.812,0 1.445,0.274 1.906,0.828 0.457,0.551 0.687,1.367 0.687,2.453 z"
         style="fill:#000000;fill-opacity:1;fill-rule:nonzero;stroke:none"
         id="path5160"
         inkscape:connector-curvature="0" /><path
         d="m 477.512,161.031 -9.016,4 0,0.969 9.016,4.016 0,-1.407 -7.11,-3.093 7.11,-3.078 0,-1.407 z"
         style="fill:#000000;fill-opacity:1;fill-rule:nonzero;stroke:none"
         id="path5162"
         inkscape:connector-curvature="0" /><path
         d="m 488.73,166.25 c 0,-2.094 -0.328,-3.633 -0.984,-4.609 -0.656,-0.981 -1.672,-1.469 -3.047,-1.469 -1.398,0 -2.418,0.492 -3.062,1.484 -0.637,1 -0.953,2.524 -0.953,4.578 0,2.063 0.32,3.586 0.968,4.579 0.657,0.988 1.672,1.484 3.047,1.484 1.395,0 2.414,-0.508 3.063,-1.516 0.644,-1 0.968,-2.511 0.968,-4.531 z m -2.062,-3.547 c 0.187,0.414 0.312,0.91 0.375,1.485 0.062,0.57 0.094,1.257 0.094,2.062 0,0.789 -0.032,1.477 -0.094,2.063 -0.063,0.582 -0.188,1.078 -0.375,1.484 -0.188,0.394 -0.438,0.691 -0.75,0.891 -0.313,0.207 -0.719,0.312 -1.219,0.312 -0.492,0 -0.898,-0.105 -1.219,-0.312 -0.312,-0.2 -0.562,-0.5 -0.75,-0.907 -0.179,-0.386 -0.304,-0.89 -0.375,-1.515 -0.062,-0.618 -0.093,-1.293 -0.093,-2.032 0,-0.812 0.023,-1.496 0.078,-2.046 0.062,-0.543 0.187,-1.032 0.375,-1.469 0.176,-0.406 0.422,-0.719 0.734,-0.938 0.313,-0.211 0.727,-0.312 1.25,-0.312 0.489,0 0.895,0.097 1.219,0.297 0.32,0.207 0.57,0.519 0.75,0.937 z"
         style="fill:#000000;fill-opacity:1;fill-rule:nonzero;stroke:none"
         id="path5164"
         inkscape:connector-curvature="0" /><path
         d="m 491.777,162.656 1.859,0 0,-2.234 -1.859,0 0,2.234 z"
         style="fill:#000000;fill-opacity:1;fill-rule:nonzero;stroke:none"
         id="path5166"
         inkscape:connector-curvature="0" /><path
         d="m 504.73,166.25 c 0,-2.094 -0.328,-3.633 -0.984,-4.609 -0.656,-0.981 -1.672,-1.469 -3.047,-1.469 -1.398,0 -2.418,0.492 -3.062,1.484 -0.637,1 -0.953,2.524 -0.953,4.578 0,2.063 0.32,3.586 0.968,4.579 0.657,0.988 1.672,1.484 3.047,1.484 1.395,0 2.414,-0.508 3.063,-1.516 0.644,-1 0.968,-2.511 0.968,-4.531 z m -2.062,-3.547 c 0.187,0.414 0.312,0.91 0.375,1.485 0.062,0.57 0.094,1.257 0.094,2.062 0,0.789 -0.032,1.477 -0.094,2.063 -0.063,0.582 -0.188,1.078 -0.375,1.484 -0.188,0.394 -0.438,0.691 -0.75,0.891 -0.313,0.207 -0.719,0.312 -1.219,0.312 -0.492,0 -0.898,-0.105 -1.219,-0.312 -0.312,-0.2 -0.562,-0.5 -0.75,-0.907 -0.179,-0.386 -0.304,-0.89 -0.375,-1.515 -0.062,-0.618 -0.093,-1.293 -0.093,-2.032 0,-0.812 0.023,-1.496 0.078,-2.046 0.062,-0.543 0.187,-1.032 0.375,-1.469 0.176,-0.406 0.422,-0.719 0.734,-0.938 0.313,-0.211 0.727,-0.312 1.25,-0.312 0.489,0 0.895,0.097 1.219,0.297 0.32,0.207 0.57,0.519 0.75,0.937 z"
         style="fill:#000000;fill-opacity:1;fill-rule:nonzero;stroke:none"
         id="path5168"
         inkscape:connector-curvature="0" /><path
         d="m 514.934,160.422 -7.875,0 0,1.641 c 0.539,0.468 1.086,0.937 1.64,1.406 0.551,0.469 1.063,0.929 1.531,1.39 1,0.969 1.68,1.739 2.047,2.313 0.375,0.57 0.563,1.187 0.563,1.844 0,0.601 -0.199,1.078 -0.594,1.422 -0.398,0.343 -0.953,0.515 -1.672,0.515 -0.469,0 -0.98,-0.086 -1.531,-0.25 -0.555,-0.168 -1.094,-0.422 -1.625,-0.765 l -0.078,0 0,1.64 c 0.375,0.176 0.867,0.336 1.484,0.485 0.614,0.156 1.211,0.234 1.797,0.234 1.188,0 2.117,-0.289 2.797,-0.859 0.676,-0.575 1.016,-1.356 1.016,-2.344 0,-0.438 -0.059,-0.852 -0.172,-1.235 -0.106,-0.386 -0.266,-0.75 -0.485,-1.093 -0.211,-0.325 -0.449,-0.641 -0.718,-0.953 -0.274,-0.313 -0.606,-0.657 -1,-1.032 -0.555,-0.554 -1.125,-1.086 -1.719,-1.593 -0.594,-0.512 -1.152,-0.985 -1.672,-1.422 l 6.266,0 0,-1.344 z"
         style="fill:#000000;fill-opacity:1;fill-rule:nonzero;stroke:none"
         id="path5170"
         inkscape:connector-curvature="0" /><path
         d="m 525.152,170.313 -5.265,-9.891 -1.672,0 5.594,10.266 -6.625,0 0,1.375 7.968,0 0,-1.75 z"
         style="fill:#000000;fill-opacity:1;fill-rule:nonzero;stroke:none"
         id="path5172"
         inkscape:connector-curvature="0" /></g></g></svg>