<?xml version="1.0" encoding="UTF-8" standalone="no"?>
<!-- Created with Inkscape (http://www.inkscape.org/) -->

<svg
   xmlns:dc="http://purl.org/dc/elements/1.1/"
   xmlns:cc="http://creativecommons.org/ns#"
   xmlns:rdf="http://www.w3.org/1999/02/22-rdf-syntax-ns#"
   xmlns:svg="http://www.w3.org/2000/svg"
   xmlns="http://www.w3.org/2000/svg"
   xmlns:sodipodi="http://sodipodi.sourceforge.net/DTD/sodipodi-0.dtd"
   xmlns:inkscape="http://www.inkscape.org/namespaces/inkscape"
   id="svg5329"
   version="1.1"
   inkscape:version="0.91 r13725"
   xml:space="preserve"
   width="1080"
   height="540"
   viewBox="0 0 1080 540"
   sodipodi:docname="Densities_V2.svg"><metadata
     id="metadata5335"><rdf:RDF><cc:Work
         rdf:about=""><dc:format>image/svg+xml</dc:format><dc:type
           rdf:resource="http://purl.org/dc/dcmitype/StillImage" /><dc:title /></cc:Work></rdf:RDF></metadata><defs
     id="defs5333"><clipPath
       clipPathUnits="userSpaceOnUse"
       id="clipPath5345"><path
         d="m 59.04,73.44 774.72,0 0,299.52 -774.72,0 0,-299.52 z"
         id="path5347"
         inkscape:connector-curvature="0" /></clipPath><clipPath
       clipPathUnits="userSpaceOnUse"
       id="clipPath5459"><path
         d="m 59.04,73.44 774.72,0 0,299.52 -774.72,0 0,-299.52 z"
         id="path5461"
         inkscape:connector-curvature="0" /></clipPath></defs><sodipodi:namedview
     pagecolor="#ffffff"
     bordercolor="#666666"
     borderopacity="1"
     objecttolerance="10"
     gridtolerance="10"
     guidetolerance="10"
     inkscape:pageopacity="0"
     inkscape:pageshadow="2"
     inkscape:window-width="1920"
     inkscape:window-height="1018"
     id="namedview5331"
     showgrid="false"
     inkscape:zoom="1.2074074"
     inkscape:cx="540"
     inkscape:cy="270"
     inkscape:window-x="-8"
     inkscape:window-y="-8"
     inkscape:window-maximized="1"
     inkscape:current-layer="g4372" /><g
     id="g5337"
     inkscape:groupmode="layer"
     inkscape:label="Densities"
     transform="matrix(1.25,0,0,-1.25,0,540)"><g
       id="g5339" /><g
       id="g5341"><g
         id="g5343"
         clip-path="url(#clipPath5345)"><path
           d="m 73.25,84.54 2.46,0 2.45,0.01 2.46,0.01 2.46,0.01 2.45,0.02 2.46,0.03 2.46,0.05 2.46,0.06 2.45,0.09 2.46,0.12 2.46,0.17 2.45,0.21 2.46,0.29 2.46,0.38 2.46,0.49 2.45,0.64 2.46,0.82 2.46,1.08 2.45,1.37 2.46,1.73 2.46,2.16 2.46,2.68 2.45,3.28 2.46,3.95 2.46,4.69 2.45,5.51 2.46,6.35 2.46,7.19 2.46,8.09 2.45,8.83 2.46,9.42 2.46,9.86 2.45,10.07 2.46,10.07 2.46,9.82 2.46,9.33 2.45,8.6 2.46,7.67 2.46,6.58 2.45,5.31 2.46,3.93 2.46,2.64 2.46,1.38 2.45,0.24 2.46,-0.8 2.46,-1.69 2.45,-2.41 2.46,-2.95 2.46,-3.35 2.46,-3.56 2.45,-3.66 2.46,-3.61 2.46,-3.46 2.45,-3.26 2.46,-3.01 2.46,-2.74 2.46,-2.48 2.45,-2.23 2.46,-1.99 2.46,-1.79 2.45,-1.62 2.46,-1.49 2.46,-1.39 2.46,-1.34 2.45,-1.32 2.46,-1.33 2.46,-1.37 2.45,-1.42 2.46,-1.49 2.46,-1.56 2.46,-1.64 2.45,-1.71 2.46,-1.77 2.46,-1.81 2.45,-1.83 2.46,-1.83 2.46,-1.8 2.46,-1.75 2.45,-1.69 2.46,-1.62 2.46,-1.52 2.45,-1.45 2.46,-1.36 2.46,-1.28 2.46,-1.23 2.45,-1.17 2.46,-1.15 2.46,-1.13 2.45,-1.14 2.46,-1.15 2.46,-1.19 2.46,-1.22 2.45,-1.27 2.46,-1.32 2.46,-1.36 2.45,-1.41 2.46,-1.44 2.46,-1.48 2.46,-1.48 2.45,-1.49 2.46,-1.46 2.46,-1.44 2.45,-1.39 2.46,-1.32 2.46,-1.26 2.46,-1.19 2.45,-1.1 2.46,-1.03 2.46,-0.94 2.45,-0.88 2.46,-0.82 2.46,-0.78 2.46,-0.73 2.45,-0.71 2.46,-0.69 2.46,-0.67 2.45,-0.64 2.46,-0.64 2.46,-0.62 2.46,-0.6 2.45,-0.59 2.46,-0.58 2.46,-0.58 2.45,-0.58 2.46,-0.6 2.46,-0.62 2.46,-0.65 2.45,-0.7 2.46,-0.73 2.46,-0.78 2.45,-0.82 2.46,-0.84 2.46,-0.86 2.46,-0.84 2.45,-0.82 2.46,-0.78 2.46,-0.72 2.45,-0.67 2.46,-0.61 2.46,-0.56 2.46,-0.5 2.45,-0.46 2.46,-0.44 2.46,-0.41 2.45,-0.41 2.46,-0.41 2.46,-0.41 2.46,-0.42 2.45,-0.4 2.46,-0.4 2.46,-0.38 2.45,-0.36 2.46,-0.34 2.46,-0.3 2.46,-0.26 2.45,-0.24 2.46,-0.21 2.46,-0.19 2.45,-0.18 2.46,-0.17 2.46,-0.17 2.46,-0.17 2.45,-0.18 2.46,-0.19 2.46,-0.21 2.45,-0.21 2.46,-0.23 2.46,-0.23 2.46,-0.23 2.45,-0.24 2.46,-0.22 2.46,-0.23 2.45,-0.22 2.46,-0.22 2.46,-0.21 2.46,-0.22 2.45,-0.21 2.46,-0.22 2.46,-0.23 2.45,-0.22 2.46,-0.23 2.46,-0.23 2.46,-0.23 2.45,-0.23 2.46,-0.21 2.46,-0.21 2.45,-0.2 2.46,-0.18 2.46,-0.18 2.46,-0.17 2.45,-0.16 2.46,-0.17 2.46,-0.16 2.45,-0.17 2.46,-0.18 2.46,-0.19 2.46,-0.2 2.45,-0.21 2.46,-0.21 2.46,-0.22 2.45,-0.21 2.46,-0.21 2.46,-0.19 2.46,-0.18 2.45,-0.15 2.46,-0.13 2.46,-0.11 2.45,-0.07 2.46,-0.04 2.46,-0.02 2.46,0 2.45,0.02 2.46,0.03 2.46,0.03 2.45,0.02 2.46,0.01 2.46,0 2.46,-0.03 2.45,-0.05 2.46,-0.07 2.46,-0.09 2.45,-0.11 2.46,-0.13 2.46,-0.13 2.46,-0.14 2.45,-0.15 2.46,-0.14 2.46,-0.14 2.45,-0.14 2.46,-0.13 2.46,-0.13 2.46,-0.12 2.45,-0.1 2.46,-0.11 2.46,-0.09 2.45,-0.09 2.46,-0.08 2.46,-0.07 2.46,-0.07 2.45,-0.07 2.46,-0.06 2.46,-0.05 2.45,-0.06 2.46,-0.05 2.46,-0.05 2.46,-0.06 2.45,-0.04 2.46,-0.05 2.46,-0.04 2.45,-0.04 2.46,-0.03 2.46,-0.02 2.46,-0.02 2.45,-0.01 2.46,0 2.46,0.01 2.45,0 2.46,0 2.46,0 2.46,-0.01 2.45,-0.02 2.46,-0.04 2.46,-0.04 2.45,-0.06 2.46,-0.06 2.46,-0.07 2.46,-0.07 2.45,-0.07 2.46,-0.06 2.46,-0.07 2.45,-0.05 2.46,-0.05 2.46,-0.04 2.46,-0.03 2.45,-0.03 2.46,-0.02 2.46,-0.01 2.45,-0.02 2.46,-0.01 2.46,-0.01 2.46,-0.01 2.45,-0.01 2.46,-0.02 2.46,-0.02 2.45,-0.03 2.46,-0.03 2.46,-0.04 2.46,-0.04 2.45,-0.05 2.46,-0.05 2.46,-0.04 2.45,-0.05 2.46,-0.04 2.46,-0.04 2.46,-0.03 2.45,-0.02 2.46,-0.02 2.46,0 2.45,-0.01 2.46,0 2.46,0.01 2.46,0 2.45,0.01 2.46,0 2.46,-0.01 2.45,-0.01 2.46,-0.01 2.46,-0.03 2.46,-0.02 2.45,-0.04 2.46,-0.03 2.46,-0.04 2.45,-0.05 2.46,-0.04 2.46,-0.04 2.46,-0.04 2.45,-0.04 2.46,-0.04 2.46,-0.04 2.45,-0.03 2.46,-0.03 2.01,-0.02"
           style="fill:none;stroke:#ff0000;stroke-width:2.25;stroke-linecap:round;stroke-linejoin:round;stroke-miterlimit:10;stroke-dasharray:none;stroke-opacity:1"
           id="path5349"
           inkscape:connector-curvature="0" /></g></g><g
       id="g5351"><path
         d="m 87.73,73.44 717.34,0"
         style="fill:none;stroke:#000000;stroke-width:0.75;stroke-linecap:round;stroke-linejoin:round;stroke-miterlimit:10;stroke-dasharray:none;stroke-opacity:1"
         id="path5353"
         inkscape:connector-curvature="0" /><path
         d="m 87.73,73.44 0,-7.2"
         style="fill:none;stroke:#000000;stroke-width:0.75;stroke-linecap:round;stroke-linejoin:round;stroke-miterlimit:10;stroke-dasharray:none;stroke-opacity:1"
         id="path5355"
         inkscape:connector-curvature="0" /><path
         d="m 190.21,73.44 0,-7.2"
         style="fill:none;stroke:#000000;stroke-width:0.75;stroke-linecap:round;stroke-linejoin:round;stroke-miterlimit:10;stroke-dasharray:none;stroke-opacity:1"
         id="path5357"
         inkscape:connector-curvature="0" /><path
         d="m 292.69,73.44 0,-7.2"
         style="fill:none;stroke:#000000;stroke-width:0.75;stroke-linecap:round;stroke-linejoin:round;stroke-miterlimit:10;stroke-dasharray:none;stroke-opacity:1"
         id="path5359"
         inkscape:connector-curvature="0" /><path
         d="m 395.16,73.44 0,-7.2"
         style="fill:none;stroke:#000000;stroke-width:0.75;stroke-linecap:round;stroke-linejoin:round;stroke-miterlimit:10;stroke-dasharray:none;stroke-opacity:1"
         id="path5361"
         inkscape:connector-curvature="0" /><path
         d="m 497.64,73.44 0,-7.2"
         style="fill:none;stroke:#000000;stroke-width:0.75;stroke-linecap:round;stroke-linejoin:round;stroke-miterlimit:10;stroke-dasharray:none;stroke-opacity:1"
         id="path5363"
         inkscape:connector-curvature="0" /><path
         d="m 600.11,73.44 0,-7.2"
         style="fill:none;stroke:#000000;stroke-width:0.75;stroke-linecap:round;stroke-linejoin:round;stroke-miterlimit:10;stroke-dasharray:none;stroke-opacity:1"
         id="path5365"
         inkscape:connector-curvature="0" /><path
         d="m 702.59,73.44 0,-7.2"
         style="fill:none;stroke:#000000;stroke-width:0.75;stroke-linecap:round;stroke-linejoin:round;stroke-miterlimit:10;stroke-dasharray:none;stroke-opacity:1"
         id="path5367"
         inkscape:connector-curvature="0" /><path
         d="m 805.07,73.44 0,-7.2"
         style="fill:none;stroke:#000000;stroke-width:0.75;stroke-linecap:round;stroke-linejoin:round;stroke-miterlimit:10;stroke-dasharray:none;stroke-opacity:1"
         id="path5369"
         inkscape:connector-curvature="0" /><text
         transform="matrix(1,0,0,-1,84.4,47.52)"
         style="font-variant:normal;font-weight:normal;font-size:12px;font-family:Helvetica;-inkscape-font-specification:Helvetica;writing-mode:lr-tb;fill:#000000;fill-opacity:1;fill-rule:nonzero;stroke:none"
         id="text5371"><tspan
           x="0"
           y="0"
           id="tspan5373">0</tspan></text>
<text
         transform="matrix(1,0,0,-1,180.2,47.52)"
         style="font-variant:normal;font-weight:normal;font-size:12px;font-family:Helvetica;-inkscape-font-specification:Helvetica;writing-mode:lr-tb;fill:#000000;fill-opacity:1;fill-rule:nonzero;stroke:none"
         id="text5375"><tspan
           x="0 6.6719999 13.344"
           y="0"
           sodipodi:role="line"
           id="tspan5377">500</tspan></text>
<text
         transform="matrix(1,0,0,-1,279.34,47.52)"
         style="font-variant:normal;font-weight:normal;font-size:12px;font-family:Helvetica;-inkscape-font-specification:Helvetica;writing-mode:lr-tb;fill:#000000;fill-opacity:1;fill-rule:nonzero;stroke:none"
         id="text5379"><tspan
           x="0 6.6719999 13.344 20.016001"
           y="0"
           sodipodi:role="line"
           id="tspan5381">1000</tspan></text>
<text
         transform="matrix(1,0,0,-1,381.82,47.52)"
         style="font-variant:normal;font-weight:normal;font-size:12px;font-family:Helvetica;-inkscape-font-specification:Helvetica;writing-mode:lr-tb;fill:#000000;fill-opacity:1;fill-rule:nonzero;stroke:none"
         id="text5383"><tspan
           x="0 6.6719999 13.344 20.016001"
           y="0"
           sodipodi:role="line"
           id="tspan5385">1500</tspan></text>
<text
         transform="matrix(1,0,0,-1,484.29,47.52)"
         style="font-variant:normal;font-weight:normal;font-size:12px;font-family:Helvetica;-inkscape-font-specification:Helvetica;writing-mode:lr-tb;fill:#000000;fill-opacity:1;fill-rule:nonzero;stroke:none"
         id="text5387"><tspan
           x="0 6.6719999 13.344 20.016001"
           y="0"
           sodipodi:role="line"
           id="tspan5389">2000</tspan></text>
<text
         transform="matrix(1,0,0,-1,586.77,47.52)"
         style="font-variant:normal;font-weight:normal;font-size:12px;font-family:Helvetica;-inkscape-font-specification:Helvetica;writing-mode:lr-tb;fill:#000000;fill-opacity:1;fill-rule:nonzero;stroke:none"
         id="text5391"><tspan
           x="0 6.6719999 13.344 20.016001"
           y="0"
           sodipodi:role="line"
           id="tspan5393">2500</tspan></text>
<text
         transform="matrix(1,0,0,-1,689.25,47.52)"
         style="font-variant:normal;font-weight:normal;font-size:12px;font-family:Helvetica;-inkscape-font-specification:Helvetica;writing-mode:lr-tb;fill:#000000;fill-opacity:1;fill-rule:nonzero;stroke:none"
         id="text5395"><tspan
           x="0 6.6719999 13.344 20.016001"
           y="0"
           sodipodi:role="line"
           id="tspan5397">3000</tspan></text>
<text
         transform="matrix(1,0,0,-1,791.72,47.52)"
         style="font-variant:normal;font-weight:normal;font-size:12px;font-family:Helvetica;-inkscape-font-specification:Helvetica;writing-mode:lr-tb;fill:#000000;fill-opacity:1;fill-rule:nonzero;stroke:none"
         id="text5399"><tspan
           x="0 6.6719999 13.344 20.016001"
           y="0"
           sodipodi:role="line"
           id="tspan5401">3500</tspan></text>
<path
         d="m 59.04,84.53 0,237.87"
         style="fill:none;stroke:#000000;stroke-width:0.75;stroke-linecap:round;stroke-linejoin:round;stroke-miterlimit:10;stroke-dasharray:none;stroke-opacity:1"
         id="path5403"
         inkscape:connector-curvature="0" /><path
         d="m 59.04,84.53 -7.2,0"
         style="fill:none;stroke:#000000;stroke-width:0.75;stroke-linecap:round;stroke-linejoin:round;stroke-miterlimit:10;stroke-dasharray:none;stroke-opacity:1"
         id="path5405"
         inkscape:connector-curvature="0" /><path
         d="m 59.04,144 -7.2,0"
         style="fill:none;stroke:#000000;stroke-width:0.75;stroke-linecap:round;stroke-linejoin:round;stroke-miterlimit:10;stroke-dasharray:none;stroke-opacity:1"
         id="path5407"
         inkscape:connector-curvature="0" /><path
         d="m 59.04,203.47 -7.2,0"
         style="fill:none;stroke:#000000;stroke-width:0.75;stroke-linecap:round;stroke-linejoin:round;stroke-miterlimit:10;stroke-dasharray:none;stroke-opacity:1"
         id="path5409"
         inkscape:connector-curvature="0" /><path
         d="m 59.04,262.93 -7.2,0"
         style="fill:none;stroke:#000000;stroke-width:0.75;stroke-linecap:round;stroke-linejoin:round;stroke-miterlimit:10;stroke-dasharray:none;stroke-opacity:1"
         id="path5411"
         inkscape:connector-curvature="0" /><path
         d="m 59.04,322.4 -7.2,0"
         style="fill:none;stroke:#000000;stroke-width:0.75;stroke-linecap:round;stroke-linejoin:round;stroke-miterlimit:10;stroke-dasharray:none;stroke-opacity:1"
         id="path5413"
         inkscape:connector-curvature="0" /><text
         transform="matrix(0,1,1,0,41.76,66.19)"
         style="font-variant:normal;font-weight:normal;font-size:12px;font-family:Helvetica;-inkscape-font-specification:Helvetica;writing-mode:lr-tb;fill:#000000;fill-opacity:1;fill-rule:nonzero;stroke:none"
         id="text5415"><tspan
           x="0 6.6719999 10.008 16.68 23.351999 30.024"
           y="0"
           sodipodi:role="line"
           id="tspan5417">0.0000</tspan></text>
<text
         transform="matrix(0,1,1,0,41.76,125.65)"
         style="font-variant:normal;font-weight:normal;font-size:12px;font-family:Helvetica;-inkscape-font-specification:Helvetica;writing-mode:lr-tb;fill:#000000;fill-opacity:1;fill-rule:nonzero;stroke:none"
         id="text5419"><tspan
           x="0 6.6719999 10.008 16.68 23.351999 30.024"
           y="0"
           sodipodi:role="line"
           id="tspan5421">0.0005</tspan></text>
<text
         transform="matrix(0,1,1,0,41.76,185.12)"
         style="font-variant:normal;font-weight:normal;font-size:12px;font-family:Helvetica;-inkscape-font-specification:Helvetica;writing-mode:lr-tb;fill:#000000;fill-opacity:1;fill-rule:nonzero;stroke:none"
         id="text5423"><tspan
           x="0 6.6719999 10.008 16.68 23.351999 30.024"
           y="0"
           sodipodi:role="line"
           id="tspan5425">0.0010</tspan></text>
<text
         transform="matrix(0,1,1,0,41.76,244.58)"
         style="font-variant:normal;font-weight:normal;font-size:12px;font-family:Helvetica;-inkscape-font-specification:Helvetica;writing-mode:lr-tb;fill:#000000;fill-opacity:1;fill-rule:nonzero;stroke:none"
         id="text5427"><tspan
           x="0 6.6719999 10.008 16.68 23.351999 30.024"
           y="0"
           sodipodi:role="line"
           id="tspan5429">0.0015</tspan></text>
<text
         transform="matrix(0,1,1,0,41.76,304.05)"
         style="font-variant:normal;font-weight:normal;font-size:12px;font-family:Helvetica;-inkscape-font-specification:Helvetica;writing-mode:lr-tb;fill:#000000;fill-opacity:1;fill-rule:nonzero;stroke:none"
         id="text5431"><tspan
           x="0 6.6719999 10.008 16.68 23.351999 30.024"
           y="0"
           sodipodi:role="line"
           id="tspan5433">0.0020</tspan></text>
<g
         transform="translate(66.822977,11.213838)"
         id="g4372"><path
           d="m 665.04,321.33 21.6,0"
           style="fill:none;stroke:#06000a;stroke-width:0.75;stroke-linecap:round;stroke-linejoin:round;stroke-miterlimit:10;stroke-dasharray:2.25, 3.75000000000000000;stroke-dashoffset:0;stroke-opacity:1"
           id="path4378"
           inkscape:connector-curvature="0" /><path
           d="m 665.04,306.93 21.6,0"
           style="fill:none;stroke:#000000;stroke-width:0.75;stroke-linecap:round;stroke-linejoin:round;stroke-miterlimit:10;stroke-dasharray:none;stroke-opacity:1"
           id="path4380"
           inkscape:connector-curvature="0" /><text
           transform="scale(1,-1)"
           style="font-variant:normal;font-weight:normal;font-size:12px;font-family:Helvetica;-inkscape-font-specification:'Helvetica, Normal';writing-mode:lr;fill:#000000;fill-opacity:1;fill-rule:nonzero;stroke:none;font-style:normal;font-stretch:normal;text-anchor:start;text-align:start;line-height:125%;"
           id="text4382"
           x="697.43982"
           y="-317.03"
           sodipodi:linespacing="125%"><tspan
             sodipodi:role="line"
             id="tspan5656">Incorrect</tspan></text>
<text
           transform="scale(1,-1)"
           style="font-variant:normal;font-weight:normal;font-size:12px;font-family:Helvetica;-inkscape-font-specification:'Helvetica, Normal';writing-mode:lr;fill:#000000;fill-opacity:1;fill-rule:nonzero;stroke:none;font-style:normal;font-stretch:normal;text-anchor:start;text-align:start;line-height:125%;"
           id="text4386"
           x="697.43982"
           y="-302.63"
           sodipodi:linespacing="125%"><tspan
             sodipodi:role="line"
             id="tspan5654">Correct</tspan></text>
<path
           d="m 665.38657,292.87136 21.6,0"
           style="fill:none;stroke:#00cd00;stroke-width:0.75;stroke-linecap:round;stroke-linejoin:round;stroke-miterlimit:10;stroke-dasharray:none;stroke-opacity:1"
           id="path4380-4"
           inkscape:connector-curvature="0" /><text
           style="font-variant:normal;font-weight:normal;font-size:12px;font-family:Helvetica;-inkscape-font-specification:'Helvetica, Normal';writing-mode:lr;fill:#000000;fill-opacity:1;fill-rule:nonzero;stroke:none;font-style:normal;font-stretch:normal;text-anchor:start;text-align:start;line-height:125%;"
           id="text4386-3"
           x="697.78564"
           y="-288.57138"
           transform="scale(1,-1)"
           sodipodi:linespacing="125%"><tspan
             sodipodi:role="line"
             id="tspan5628">High</tspan></text>
<path
           d="m 665.38657,280.07136 21.6,0"
           style="fill:none;stroke:#a3443f;stroke-width:0.75;stroke-linecap:round;stroke-linejoin:round;stroke-miterlimit:10;stroke-dasharray:none;stroke-opacity:0.94117647"
           id="path4380-8"
           inkscape:connector-curvature="0" /><text
           style="font-variant:normal;font-weight:normal;font-size:12px;font-family:Helvetica;-inkscape-font-specification:'Helvetica, Normal';writing-mode:lr;fill:#000000;fill-opacity:1;fill-rule:nonzero;stroke:none;font-style:normal;font-stretch:normal;text-anchor:start;text-align:start;line-height:125%;"
           id="text4386-4"
           x="697.78564"
           y="-275.77133"
           transform="scale(1,-1)"
           sodipodi:linespacing="125%"><tspan
             sodipodi:role="line"
             id="tspan5630">Medium</tspan></text>
<path
           d="m 665.38657,268.87136 21.6,0"
           style="fill:none;stroke:#ff0000;stroke-width:0.75;stroke-linecap:round;stroke-linejoin:round;stroke-miterlimit:10;stroke-dasharray:none;stroke-opacity:1"
           id="path4380-6"
           inkscape:connector-curvature="0" /><text
           style="font-variant:normal;font-weight:normal;font-size:12px;font-family:Helvetica;-inkscape-font-specification:'Helvetica, Normal';writing-mode:lr;fill:#000000;fill-opacity:1;fill-rule:nonzero;stroke:none;font-style:normal;font-stretch:normal;text-anchor:start;text-align:start;line-height:125%;"
           id="text4386-9"
           x="697.78564"
           y="-264.57129"
           transform="scale(1,-1)"
           sodipodi:linespacing="125%"><tspan
             sodipodi:role="line"
             id="tspan5632">Low</tspan></text>
<text
           y="-336.5715"
           x="632.94946"
           style="font-style:normal;font-variant:normal;font-weight:normal;font-stretch:normal;font-size:12px;line-height:125%;font-family:Helvetica;-inkscape-font-specification:'Helvetica, Normal';text-align:start;writing-mode:lr-tb;text-anchor:start;fill:#000000;fill-opacity:1;fill-rule:nonzero;stroke:none"
           id="text4374"
           transform="scale(1,-1)"
           sodipodi:linespacing="125%"><tspan
             sodipodi:role="line"
             id="tspan5652"
             x="632.94946"
             y="-336.5715"
             style="font-weight:bold">Hypnotic Susceptibility</tspan></text>
<rect
           style="fill:none;fill-opacity:1;stroke:#1d1621;stroke-width:2.27587843;stroke-miterlimit:4;stroke-dasharray:none;stroke-dashoffset:0;stroke-opacity:1"
           id="rect8849"
           width="138.62704"
           height="99.391869"
           x="629.52734"
           y="-354.53116"
           transform="scale(1,-1)" /></g></g><g
       id="g5437"><text
         transform="scale(1,-1)"
         style="font-variant:normal;font-weight:bold;font-size:14px;font-family:Helvetica;-inkscape-font-specification:Helvetica-Bold;writing-mode:lr-tb;fill:#000000;fill-opacity:1;fill-rule:nonzero;stroke:none"
         id="text5439"
         x="288.72021"
         y="-404.64999"><tspan
           sodipodi:role="line"
           id="tspan5441"
           x="288.72021"
           y="-404.64999">Response Time Density for Right and Wrong Answers </tspan></text>
<text
         transform="scale(1,-1)"
         style="font-variant:normal;font-weight:normal;font-size:12px;font-family:Helvetica;-inkscape-font-specification:Helvetica;writing-mode:lr-tb;fill:#000000;fill-opacity:1;fill-rule:nonzero;stroke:none"
         id="text5447"
         x="656.74835"
         y="-18.719999"><tspan
           x="656.74835 665.41217 668.74811 675.75598 679.09192 685.76379 692.43567 699.10754 705.77936 715.78717 723.79102 730.46295 737.13483 743.8067 752.47052 755.13446 761.80634 765.14227 771.81415 775.15009 782.15796 785.4939 792.16571 798.83765 802.17365"
           y="-18.719999"
           sodipodi:role="line"
           id="tspan5449">N = 6564 Bandwidth = 73.9</tspan></text>
<text
         transform="matrix(0,1,1,0,12.96,203.2)"
         style="font-variant:normal;font-weight:normal;font-size:12px;font-family:Helvetica;-inkscape-font-specification:Helvetica;writing-mode:lr-tb;fill:#000000;fill-opacity:1;fill-rule:nonzero;stroke:none"
         id="text5451"><tspan
           x="0 8.6639996 15.336 22.007999 28.007999 30.672001 34.007999"
           y="0"
           sodipodi:role="line"
           id="tspan5453">Density</tspan></text>
<text
         style="font-variant:normal;font-weight:normal;font-size:12px;font-family:Helvetica;-inkscape-font-specification:Helvetica;writing-mode:lr-tb;fill:#000000;fill-opacity:1;fill-rule:nonzero;stroke:none"
         id="text5447-8"
         x="426.6994"
         y="-20.279009"
         transform="scale(1,-1)"><tspan
           sodipodi:role="line"
           id="tspan5449-4"
           x="426.6994"
           y="-20.279009">Time (ms)</tspan></text>
</g><g
       id="g5455"><g
         id="g5457"
         clip-path="url(#clipPath5459)"><path
           d="m 59.04,84.53 774.72,0"
           style="fill:none;stroke:#bebebe;stroke-width:0.08;stroke-linecap:round;stroke-linejoin:round;stroke-miterlimit:10;stroke-dasharray:none;stroke-opacity:1"
           id="path5463"
           inkscape:connector-curvature="0" /><path
           d="m 82.78,84.55 1.65,0.01 1.65,0.01 1.65,0.02 1.65,0.03 1.65,0.04 1.65,0.05 1.65,0.08 1.65,0.09 1.65,0.13 1.65,0.17 1.65,0.21 1.65,0.26 1.66,0.33 1.65,0.39 1.65,0.47 1.65,0.55 1.65,0.64 1.65,0.72 1.65,0.82 1.65,0.92 1.65,1.03 1.65,1.16 1.65,1.27 1.65,1.41 1.65,1.57 1.65,1.73 1.65,1.95 1.65,2.18 1.65,2.45 1.65,2.77 1.65,3.18 1.65,3.61 1.65,4.09 1.65,4.59 1.66,5.13 1.65,5.71 1.65,6.27 1.65,6.85 1.65,7.39 1.65,7.9 1.65,8.38 1.65,8.7 1.65,8.93 1.65,9.03 1.65,9 1.65,8.83 1.65,8.53 1.65,8.09 1.65,7.52 1.65,6.82 1.65,5.96 1.65,5.1 1.65,4.2 1.65,3.27 1.65,2.34 1.66,1.45 1.65,0.59 1.65,-0.22 1.65,-0.95 1.65,-1.63 1.65,-2.21 1.65,-2.66 1.65,-3.02 1.65,-3.28 1.65,-3.48 1.65,-3.59 1.65,-3.64 1.65,-3.63 1.65,-3.56 1.65,-3.44 1.65,-3.29 1.65,-3.12 1.65,-2.94 1.65,-2.75 1.65,-2.55 1.65,-2.36 1.65,-2.18 1.66,-1.99 1.65,-1.82 1.65,-1.63 1.65,-1.47 1.65,-1.33 1.65,-1.19 1.65,-1.07 1.65,-0.97 1.65,-0.88 1.65,-0.81 1.65,-0.77 1.65,-0.75 1.65,-0.76 1.65,-0.8 1.65,-0.85 1.65,-0.92 1.65,-1.02 1.65,-1.11 1.65,-1.2 1.65,-1.31 1.65,-1.39 1.66,-1.48 1.65,-1.54 1.65,-1.59 1.65,-1.61 1.65,-1.63 1.65,-1.63 1.65,-1.61 1.65,-1.58 1.65,-1.56 1.65,-1.52 1.65,-1.5 1.65,-1.46 1.65,-1.44 1.65,-1.42 1.65,-1.4 1.65,-1.39 1.65,-1.39 1.65,-1.37 1.65,-1.37 1.65,-1.35 1.65,-1.33 1.65,-1.31 1.66,-1.29 1.65,-1.27 1.65,-1.24 1.65,-1.22 1.65,-1.2 1.65,-1.19 1.65,-1.17 1.65,-1.16 1.65,-1.15 1.65,-1.15 1.65,-1.14 1.65,-1.14 1.65,-1.13 1.65,-1.11 1.65,-1.1 1.65,-1.09 1.65,-1.06 1.65,-1.04 1.65,-1.01 1.65,-0.99 1.65,-0.97 1.66,-0.95 1.65,-0.94 1.65,-0.93 1.65,-0.91 1.65,-0.92 1.65,-0.9 1.65,-0.9 1.65,-0.89 1.65,-0.88 1.65,-0.85 1.65,-0.84 1.65,-0.8 1.65,-0.78 1.65,-0.74 1.65,-0.72 1.65,-0.68 1.65,-0.65 1.65,-0.63 1.65,-0.62 1.65,-0.6 1.65,-0.59 1.65,-0.59 1.66,-0.59 1.65,-0.58 1.65,-0.59 1.65,-0.57 1.65,-0.57 1.65,-0.55 1.65,-0.53 1.65,-0.51 1.65,-0.49 1.65,-0.47 1.65,-0.43 1.65,-0.41 1.65,-0.38 1.65,-0.35 1.65,-0.32 1.65,-0.31 1.65,-0.29 1.65,-0.27 1.65,-0.26 1.65,-0.26 1.65,-0.25 1.66,-0.25 1.65,-0.26 1.65,-0.26 1.65,-0.27 1.65,-0.27 1.65,-0.29 1.65,-0.3 1.65,-0.3 1.65,-0.32 1.65,-0.33 1.65,-0.34 1.65,-0.34 1.65,-0.36 1.65,-0.36 1.65,-0.37 1.65,-0.37 1.65,-0.38 1.65,-0.38 1.65,-0.38 1.65,-0.38 1.65,-0.39 1.65,-0.37 1.66,-0.38 1.65,-0.37 1.65,-0.37 1.65,-0.37 1.65,-0.37 1.65,-0.37 1.65,-0.37 1.65,-0.37 1.65,-0.38 1.65,-0.38 1.65,-0.38 1.65,-0.39 1.65,-0.39 1.65,-0.39 1.65,-0.38 1.65,-0.37 1.65,-0.36 1.65,-0.34 1.65,-0.32 1.65,-0.29 1.65,-0.26 1.65,-0.23 1.66,-0.21 1.65,-0.18 1.65,-0.16 1.65,-0.14 1.65,-0.12 1.65,-0.11 1.65,-0.09 1.65,-0.08 1.65,-0.07 1.65,-0.05 1.65,-0.05 1.65,-0.04 1.65,-0.03 1.65,-0.03 1.65,-0.01 1.65,0 1.65,0 1.65,0 1.65,0.01 1.65,0 1.65,0 1.66,-0.02 1.65,-0.03 1.65,-0.04 1.65,-0.06 1.65,-0.08 1.65,-0.09 1.65,-0.11 1.65,-0.12 1.65,-0.12 1.65,-0.13 1.65,-0.12 1.65,-0.12 1.65,-0.1 1.65,-0.09 1.65,-0.07 1.65,-0.05 1.65,-0.03 1.65,-0.02 1.65,0 1.65,0.01 1.65,0 1.65,0.01 1.66,0 1.65,-0.02 1.65,-0.03 1.65,-0.05 1.65,-0.07 1.65,-0.1 1.65,-0.12 1.65,-0.14 1.65,-0.15 1.65,-0.17 1.65,-0.17 1.65,-0.18 1.65,-0.18 1.65,-0.18 1.65,-0.17 1.65,-0.16 1.65,-0.15 1.65,-0.14 1.65,-0.11 1.65,-0.11 1.65,-0.08 1.66,-0.06 1.65,-0.05 1.65,-0.04 1.65,-0.02 1.65,-0.01 1.65,-0.01 1.65,0 1.65,-0.01 1.65,-0.01 1.65,-0.02 1.65,-0.02 1.65,-0.03 1.65,-0.05 1.65,-0.05 1.65,-0.06 1.65,-0.06 1.65,-0.07 1.65,-0.07 1.65,-0.08 1.65,-0.07 1.65,-0.07 1.65,-0.07 1.66,-0.07 1.65,-0.07 1.65,-0.07 1.65,-0.07 1.65,-0.07 1.65,-0.07 1.65,-0.08 1.65,-0.08 1.65,-0.07 1.65,-0.08 1.65,-0.07 1.65,-0.07 1.65,-0.07 1.65,-0.06 1.65,-0.06 1.65,-0.05 1.65,-0.05 1.65,-0.05 1.65,-0.04 1.65,-0.03 1.65,-0.04 1.66,-0.03 1.65,-0.02 1.65,-0.03 1.65,-0.02 1.65,-0.02 1.65,-0.02 1.65,-0.02 1.65,-0.02 1.65,-0.01 1.65,-0.01 1.65,-0.02 1.65,-0.01 1.65,-0.01 1.65,-0.01 1.65,-0.02 1.65,-0.01 1.65,-0.02 1.65,-0.02 1.65,-0.02 1.65,-0.01 1.65,-0.02 1.65,-0.02 1.66,-0.01 1.65,-0.02 1.65,0 1.65,-0.01 1.65,0 1.65,0.01 1.65,0.01 1.65,0.02 1.65,0.03 1.65,0.02 1.65,0.03 1.65,0.03 1.65,0.02 1.65,0.02 1.65,0.01 1.65,0.01 1.65,-0.01 1.65,-0.02 1.65,-0.03 1.65,-0.04 1.65,-0.05 1.66,-0.06 1.65,-0.06 1.65,-0.07 1.65,-0.07 1.65,-0.06 1.65,-0.07 1.65,-0.06 1.65,-0.05 1.65,-0.05 1.65,-0.04 1.65,-0.03 1.65,-0.03 1.65,-0.02 1.65,-0.01 1.65,-0.02 1.65,0 1.65,-0.01 1.65,0 1.65,0 1.65,0.01 1.65,0 1.65,0.01 1.66,0.01 1.65,0.02 1.65,0.02 1.65,0.02 1.65,0.02 1.65,0.03 1.65,0.02 1.65,0.03 1.65,0.02 1.65,0.02 1.65,0.01 1.65,0.01 1.65,0 1.65,-0.01 1.65,-0.01 1.65,-0.01 1.65,-0.02 1.65,-0.02 1.65,-0.03 1.65,-0.02 1.65,-0.03 1.66,-0.02 1.65,-0.02 1.65,-0.01 1.65,-0.01 1.65,-0.01 1.65,0 1.65,0 1.65,0 1.65,0 1.65,0.01 1.65,0.01 1.65,0.01 1.65,0 1.65,0.01 1.65,0 1.65,0 1.65,0 1.65,0 1.65,0 1.65,0 1.65,-0.01 1.65,0 1.66,-0.01 1.65,-0.01 1.65,-0.01 1.65,0 1.65,-0.01 1.65,-0.01 1.65,0 1.65,-0.01 1.65,-0.01 1.65,0 1.65,0 1.65,-0.01 1.65,0 1.65,0 1.65,0 1.65,-0.01 1.65,0 1.65,0 1.65,-0.01 1.65,0 1.65,-0.01 1.65,0 1.66,0 1.65,-0.01 1.65,0 1.65,0 1.65,0 1.65,0 1.65,0.01 1.65,0 0.55,0"
           style="fill:none;stroke:#a34433;stroke-width:2.25;stroke-linecap:round;stroke-linejoin:round;stroke-miterlimit:10;stroke-dasharray:none;stroke-opacity:1"
           id="path5465"
           inkscape:connector-curvature="0" /><path
           d="m 92.73,84.54 1.78,0.01 1.79,0.01 1.78,0.01 1.79,0.02 1.78,0.04 1.79,0.05 1.78,0.08 1.79,0.11 1.78,0.15 1.79,0.21 1.79,0.27 1.78,0.34 1.79,0.45 1.78,0.55 1.79,0.7 1.78,0.87 1.79,1.07 1.78,1.34 1.79,1.68 1.78,2.11 1.79,2.71 1.79,3.49 1.78,4.46 1.79,5.64 1.78,7.06 1.79,8.72 1.78,10.56 1.79,12.54 1.78,14.56 1.79,16.51 1.78,18.25 1.79,19.64 1.79,20.56 1.78,20.88 1.79,20.41 1.78,19.24 1.79,17.42 1.78,15.01 1.79,12.19 1.78,9.04 1.79,5.8 1.78,2.57 1.79,-0.47 1.78,-3.21 1.79,-5.55 1.79,-7.45 1.78,-8.91 1.79,-9.88 1.78,-10.36 1.79,-10.48 1.78,-10.27 1.79,-9.83 1.78,-9.19 1.79,-8.43 1.78,-7.59 1.79,-6.72 1.79,-5.89 1.78,-5.09 1.79,-4.37 1.78,-3.72 1.79,-3.14 1.78,-2.65 1.79,-2.24 1.78,-1.88 1.79,-1.57 1.78,-1.34 1.79,-1.16 1.79,-1.09 1.78,-1.09 1.79,-1.17 1.78,-1.33 1.79,-1.53 1.78,-1.76 1.79,-2.01 1.78,-2.21 1.79,-2.38 1.78,-2.51 1.79,-2.61 1.78,-2.68 1.79,-2.75 1.79,-2.79 1.78,-2.84 1.79,-2.88 1.78,-2.91 1.79,-2.92 1.78,-2.93 1.79,-2.91 1.78,-2.87 1.79,-2.83 1.78,-2.77 1.79,-2.7 1.79,-2.61 1.78,-2.53 1.79,-2.42 1.78,-2.3 1.79,-2.18 1.78,-2.04 1.79,-1.88 1.78,-1.73 1.79,-1.56 1.78,-1.4 1.79,-1.25 1.79,-1.11 1.78,-1.02 1.79,-0.95 1.78,-0.92 1.79,-0.92 1.78,-0.98 1.79,-1.05 1.78,-1.14 1.79,-1.23 1.78,-1.3 1.79,-1.34 1.78,-1.36 1.79,-1.35 1.79,-1.31 1.78,-1.26 1.79,-1.21 1.78,-1.17 1.79,-1.14 1.78,-1.11 1.79,-1.11 1.78,-1.1 1.79,-1.09 1.78,-1.07 1.79,-1.05 1.79,-1 1.78,-0.93 1.79,-0.87 1.78,-0.79 1.79,-0.71 1.78,-0.64 1.79,-0.57 1.78,-0.53 1.79,-0.49 1.78,-0.47 1.79,-0.47 1.79,-0.47 1.78,-0.49 1.79,-0.5 1.78,-0.53 1.79,-0.53 1.78,-0.54 1.79,-0.54 1.78,-0.52 1.79,-0.49 1.78,-0.44 1.79,-0.37 1.78,-0.31 1.79,-0.25 1.79,-0.18 1.78,-0.12 1.79,-0.11 1.78,-0.1 1.79,-0.13 1.78,-0.16 1.79,-0.2 1.78,-0.25 1.79,-0.3 1.78,-0.32 1.79,-0.35 1.79,-0.35 1.78,-0.35 1.79,-0.34 1.78,-0.33 1.79,-0.32 1.78,-0.31 1.79,-0.3 1.78,-0.3 1.79,-0.29 1.78,-0.28 1.79,-0.27 1.79,-0.27 1.78,-0.27 1.79,-0.26 1.78,-0.26 1.79,-0.25 1.78,-0.25 1.79,-0.24 1.78,-0.22 1.79,-0.2 1.78,-0.18 1.79,-0.16 1.78,-0.14 1.79,-0.12 1.79,-0.12 1.78,-0.12 1.79,-0.12 1.78,-0.12 1.79,-0.14 1.78,-0.14 1.79,-0.15 1.78,-0.15 1.79,-0.16 1.78,-0.16 1.79,-0.17 1.79,-0.16 1.78,-0.17 1.79,-0.16 1.78,-0.17 1.79,-0.17 1.78,-0.18 1.79,-0.18 1.78,-0.18 1.79,-0.18 1.78,-0.18 1.79,-0.16 1.79,-0.16 1.78,-0.13 1.79,-0.11 1.78,-0.08 1.79,-0.06 1.78,-0.04 1.79,-0.02 1.78,0 1.79,0 1.78,0.02 1.79,0.02 1.78,0.03 1.79,0.05 1.79,0.05 1.78,0.06 1.79,0.05 1.78,0.03 1.79,0 1.78,-0.04 1.79,-0.09 1.78,-0.14 1.79,-0.21 1.78,-0.25 1.79,-0.28 1.79,-0.3 1.78,-0.3 1.79,-0.27 1.78,-0.23 1.79,-0.18 1.78,-0.13 1.79,-0.07 1.78,-0.03 1.79,0.03 1.78,0.05 1.79,0.08 1.79,0.09 1.78,0.1 1.79,0.09 1.78,0.08 1.79,0.08 1.78,0.08 1.79,0.07 1.78,0.06 1.79,0.07 1.78,0.07 1.79,0.07 1.79,0.06 1.78,0.05 1.79,0.04 1.78,0.01 1.79,-0.02 1.78,-0.04 1.79,-0.07 1.78,-0.09 1.79,-0.12 1.78,-0.13 1.79,-0.16 1.78,-0.17 1.79,-0.18 1.79,-0.19 1.78,-0.2 1.79,-0.19 1.78,-0.19 1.79,-0.16 1.78,-0.14 1.79,-0.12 1.78,-0.08 1.79,-0.06 1.78,-0.03 1.79,-0.01 1.79,0.01 1.78,0.01 1.79,0.02 1.78,0.02 1.79,0.02 1.78,0.02 1.79,0.02 1.78,0.02 1.79,0.04 1.78,0.05 1.79,0.07 1.79,0.11 1.78,0.12 1.79,0.15 1.78,0.17 1.79,0.17 1.78,0.16 1.79,0.14 1.78,0.09 1.79,0.05 1.78,-0.01 1.79,-0.07 1.78,-0.11 1.79,-0.15 1.79,-0.19 1.78,-0.2 1.79,-0.2 1.78,-0.18 1.79,-0.17 1.78,-0.13 1.79,-0.1 1.78,-0.06 1.79,-0.03 1.78,-0.01 1.79,0.01 1.79,0.02 1.78,0.01 1.79,0.01 1.78,-0.01 1.79,-0.03 1.78,-0.05 1.79,-0.06 1.78,-0.07 1.79,-0.08 1.78,-0.07 1.79,-0.07 1.79,-0.04 1.78,-0.03 1.79,0 1.78,0.01 1.79,0.03 1.78,0.05 1.79,0.06 1.78,0.06 1.79,0.07 1.78,0.06 1.79,0.05 1.78,0.03 1.79,0.03 1.79,0.02 1.78,0.02 1.79,0.01 1.78,0.01 1.79,0.02 1.78,0.01 1.79,0.02 1.78,0.02 1.79,0.01 1.78,0 1.79,0 1.79,-0.02 1.78,-0.03 1.79,-0.04 1.78,-0.05 1.79,-0.05 1.78,-0.07 1.79,-0.06 1.78,-0.06 1.79,-0.06 1.78,-0.06 1.79,-0.05 1.79,-0.04 1.78,-0.04 1.79,-0.04 1.78,-0.04 1.79,-0.03 1.78,-0.03 1.79,-0.03 1.78,-0.02 1.79,-0.03 1.78,-0.01 1.79,-0.02 1.78,-0.01 1.79,-0.01 1.79,0 1.78,-0.01 1.79,0 1.78,0 1.79,0 1.78,0 1.79,0 1.78,0 1.79,0.01 1.78,0 1.79,0.01 1.79,0.01 1.78,0.02 1.79,0.01 1.78,0.02 1.79,0.02 1.78,0.02 1.79,0.02 1.78,0.01 1.79,0.01 1.78,0 1.79,0 1.79,-0.01 1.78,-0.01 1.79,-0.02 1.78,-0.02 1.79,-0.01 1.78,-0.02 1.79,-0.01 1.78,-0.01 1.79,0 1.78,0 1.79,0.01 1.78,0.02 1.79,0.03 1.79,0.03 1.78,0.03 1.79,0.04 1.78,0.04 1.79,0.04 1.78,0.04 1.79,0.03 1.78,0.03 1.79,0.01 1.78,0.01 1.79,-0.01 1.79,-0.01 1.78,-0.02 1.79,-0.02 1.78,-0.03 1.79,-0.03 1.78,-0.03 1.79,-0.03 1.78,-0.03 1.79,-0.02 1.78,-0.01 1.79,-0.01 1.79,0 1.78,0 1.79,0 1.75,0.01"
           style="fill:none;stroke:#00cd00;stroke-width:2.25;stroke-linecap:round;stroke-linejoin:round;stroke-miterlimit:10;stroke-dasharray:none;stroke-opacity:1"
           id="path5467"
           inkscape:connector-curvature="0" /><path
           d="m 48.71,84.54 2.34,0.01 2.33,0 2.34,0.01 2.34,0.01 2.34,0.01 2.34,0.02 2.33,0.02 2.34,0.02 2.34,0.04 2.34,0.04 2.34,0.06 2.34,0.07 2.33,0.09 2.34,0.11 2.34,0.13 2.34,0.17 2.34,0.2 2.33,0.25 2.34,0.3 2.34,0.37 2.34,0.43 2.34,0.52 2.33,0.61 2.34,0.71 2.34,0.84 2.34,0.99 2.34,1.14 2.33,1.31 2.34,1.48 2.34,1.67 2.34,1.88 2.34,2.12 2.34,2.37 2.33,2.59 2.34,2.84 2.34,3.06 2.34,3.29 2.34,3.5 2.33,3.72 2.34,3.91 2.34,4.05 2.34,4.16 2.34,4.23 2.33,4.27 2.34,4.27 2.34,4.22 2.34,4.1 2.34,3.95 2.33,3.76 2.34,3.54 2.34,3.29 2.34,3 2.34,2.71 2.33,2.33 2.34,2 2.34,1.68 2.34,1.35 2.34,1.06 2.34,0.77 2.33,0.51 2.34,0.25 2.34,0.02 2.34,-0.13 2.34,-0.28 2.33,-0.39 2.34,-0.48 2.34,-0.53 2.34,-0.57 2.34,-0.6 2.33,-0.59 2.34,-0.58 2.34,-0.56 2.34,-0.55 2.34,-0.52 2.33,-0.5 2.34,-0.48 2.34,-0.47 2.34,-0.47 2.34,-0.47 2.34,-0.49 2.33,-0.49 2.34,-0.53 2.34,-0.55 2.34,-0.6 2.34,-0.63 2.33,-0.68 2.34,-0.72 2.34,-0.76 2.34,-0.81 2.34,-0.86 2.33,-0.91 2.34,-0.94 2.34,-0.98 2.34,-1.01 2.34,-1.04 2.33,-1.05 2.34,-1.08 2.34,-1.08 2.34,-1.07 2.34,-1.07 2.34,-1.06 2.33,-1.03 2.34,-1 2.34,-0.97 2.34,-0.92 2.34,-0.87 2.33,-0.83 2.34,-0.77 2.34,-0.73 2.34,-0.68 2.34,-0.64 2.33,-0.6 2.34,-0.56 2.34,-0.54 2.34,-0.53 2.34,-0.52 2.33,-0.51 2.34,-0.53 2.34,-0.55 2.34,-0.57 2.34,-0.61 2.33,-0.63 2.34,-0.68 2.34,-0.71 2.34,-0.75 2.34,-0.78 2.34,-0.83 2.33,-0.84 2.34,-0.88 2.34,-0.88 2.34,-0.9 2.34,-0.91 2.33,-0.91 2.34,-0.9 2.34,-0.89 2.34,-0.88 2.34,-0.86 2.33,-0.85 2.34,-0.82 2.34,-0.81 2.34,-0.78 2.34,-0.77 2.33,-0.75 2.34,-0.73 2.34,-0.72 2.34,-0.71 2.34,-0.7 2.34,-0.7 2.33,-0.69 2.34,-0.69 2.34,-0.7 2.34,-0.69 2.34,-0.7 2.33,-0.7 2.34,-0.71 2.34,-0.72 2.34,-0.72 2.34,-0.73 2.33,-0.73 2.34,-0.73 2.34,-0.73 2.34,-0.73 2.34,-0.72 2.33,-0.71 2.34,-0.7 2.34,-0.69 2.34,-0.67 2.34,-0.66 2.34,-0.63 2.33,-0.6 2.34,-0.58 2.34,-0.54 2.34,-0.52 2.34,-0.49 2.33,-0.45 2.34,-0.42 2.34,-0.38 2.34,-0.34 2.34,-0.31 2.33,-0.27 2.34,-0.24 2.34,-0.2 2.34,-0.18 2.34,-0.13 2.33,-0.11 2.34,-0.08 2.34,-0.05 2.34,-0.04 2.34,-0.02 2.33,-0.01 2.34,0 2.34,0 2.34,0 2.34,0 2.34,-0.02 2.33,-0.03 2.34,-0.05 2.34,-0.07 2.34,-0.09 2.34,-0.13 2.33,-0.15 2.34,-0.17 2.34,-0.21 2.34,-0.22 2.34,-0.26 2.33,-0.28 2.34,-0.3 2.34,-0.32 2.34,-0.33 2.34,-0.34 2.33,-0.35 2.34,-0.34 2.34,-0.35 2.34,-0.34 2.34,-0.33 2.34,-0.31 2.33,-0.3 2.34,-0.28 2.34,-0.26 2.34,-0.24 2.34,-0.21 2.33,-0.19 2.34,-0.17 2.34,-0.15 2.34,-0.12 2.34,-0.12 2.33,-0.09 2.34,-0.08 2.34,-0.08 2.34,-0.06 2.34,-0.07 2.33,-0.06 2.34,-0.06 2.34,-0.07 2.34,-0.07 2.34,-0.07 2.34,-0.09 2.33,-0.08 2.34,-0.1 2.34,-0.1 2.34,-0.1 2.34,-0.11 2.33,-0.11 2.34,-0.1 2.34,-0.11 2.34,-0.1 2.34,-0.1 2.33,-0.1 2.34,-0.09 2.34,-0.09 2.34,-0.08 2.34,-0.07 2.33,-0.08 2.34,-0.07 2.34,-0.07 2.34,-0.08 2.34,-0.08 2.33,-0.08 2.34,-0.09 2.34,-0.09 2.34,-0.1 2.34,-0.12 2.34,-0.12 2.33,-0.13 2.34,-0.14 2.34,-0.14 2.34,-0.16 2.34,-0.16 2.33,-0.16 2.34,-0.16 2.34,-0.17 2.34,-0.16 2.34,-0.16 2.33,-0.16 2.34,-0.15 2.34,-0.14 2.34,-0.14 2.34,-0.12 2.33,-0.11 2.34,-0.11 2.34,-0.09 2.34,-0.08 2.34,-0.07 2.34,-0.07 2.33,-0.05 2.34,-0.05 2.34,-0.04 2.34,-0.03 2.34,-0.03 2.33,-0.03 2.34,-0.02 2.34,-0.02 2.34,-0.02 2.34,-0.03 2.33,-0.02 2.34,-0.03 2.34,-0.04 2.34,-0.04 2.34,-0.04 2.33,-0.05 2.34,-0.06 2.34,-0.06 2.34,-0.08 2.34,-0.08 2.34,-0.08 2.33,-0.1 2.34,-0.1 2.34,-0.1 2.34,-0.11 2.34,-0.12 2.33,-0.12 2.34,-0.12 2.34,-0.13 2.34,-0.12 2.34,-0.13 2.33,-0.12 2.34,-0.13 2.34,-0.12 2.34,-0.11 2.34,-0.12 2.33,-0.1 2.34,-0.11 2.34,-0.1 2.34,-0.09 2.34,-0.09 2.33,-0.08 2.34,-0.08 2.34,-0.08 2.34,-0.07 2.34,-0.06 2.34,-0.07 2.33,-0.06 2.34,-0.05 2.34,-0.06 2.34,-0.05 2.34,-0.05 2.33,-0.05 2.34,-0.05 2.34,-0.04 2.34,-0.05 2.34,-0.04 2.33,-0.04 2.34,-0.04 2.34,-0.04 2.34,-0.04 2.34,-0.03 2.33,-0.03 2.34,-0.03 1.64,-0.02"
           style="fill:none;stroke:#ff0000;stroke-width:0.75;stroke-linecap:round;stroke-linejoin:round;stroke-miterlimit:10;stroke-dasharray:2.25, 3.75;stroke-dashoffset:0;stroke-opacity:1"
           id="path5469"
           inkscape:connector-curvature="0" /><path
           d="m 65.41,84.54 1.81,0 1.8,0.01 1.81,0 1.81,0.01 1.8,0.01 1.81,0.01 1.81,0.02 1.8,0.02 1.81,0.03 1.81,0.04 1.81,0.04 1.8,0.06 1.81,0.06 1.81,0.09 1.8,0.11 1.81,0.13 1.81,0.16 1.8,0.19 1.81,0.23 1.81,0.28 1.8,0.34 1.81,0.4 1.81,0.47 1.8,0.56 1.81,0.65 1.81,0.76 1.8,0.88 1.81,1.04 1.81,1.2 1.81,1.37 1.8,1.57 1.81,1.77 1.81,2 1.8,2.25 1.81,2.51 1.81,2.83 1.8,3.11 1.81,3.4 1.81,3.7 1.8,4 1.81,4.29 1.81,4.56 1.8,4.87 1.81,5.1 1.81,5.29 1.8,5.45 1.81,5.57 1.81,5.65 1.81,5.66 1.8,5.63 1.81,5.52 1.81,5.36 1.8,5.15 1.81,4.89 1.81,4.59 1.8,4.24 1.81,3.84 1.81,3.38 1.8,2.93 1.81,2.5 1.81,2.06 1.8,1.63 1.81,1.2 1.81,0.8 1.8,0.38 1.81,0.03 1.81,-0.25 1.81,-0.51 1.8,-0.72 1.81,-0.9 1.81,-1.04 1.8,-1.14 1.81,-1.21 1.81,-1.23 1.8,-1.23 1.81,-1.21 1.81,-1.17 1.8,-1.13 1.81,-1.06 1.81,-1 1.8,-0.93 1.81,-0.88 1.81,-0.83 1.8,-0.78 1.81,-0.75 1.81,-0.73 1.8,-0.71 1.81,-0.71 1.81,-0.72 1.81,-0.75 1.8,-0.77 1.81,-0.81 1.81,-0.84 1.8,-0.9 1.81,-0.95 1.81,-1 1.8,-1.06 1.81,-1.1 1.81,-1.16 1.8,-1.2 1.81,-1.24 1.81,-1.29 1.8,-1.33 1.81,-1.37 1.81,-1.39 1.8,-1.42 1.81,-1.45 1.81,-1.46 1.81,-1.49 1.8,-1.51 1.81,-1.53 1.81,-1.53 1.8,-1.55 1.81,-1.56 1.81,-1.57 1.8,-1.56 1.81,-1.57 1.81,-1.56 1.8,-1.55 1.81,-1.54 1.81,-1.52 1.8,-1.49 1.81,-1.45 1.81,-1.42 1.8,-1.38 1.81,-1.33 1.81,-1.28 1.81,-1.23 1.8,-1.19 1.81,-1.14 1.81,-1.08 1.8,-1.04 1.81,-0.99 1.81,-0.96 1.8,-0.92 1.81,-0.89 1.81,-0.86 1.8,-0.84 1.81,-0.82 1.81,-0.8 1.8,-0.79 1.81,-0.78 1.81,-0.77 1.8,-0.75 1.81,-0.74 1.81,-0.73 1.81,-0.72 1.8,-0.69 1.81,-0.69 1.81,-0.66 1.8,-0.65 1.81,-0.62 1.81,-0.61 1.8,-0.59 1.81,-0.58 1.81,-0.56 1.8,-0.55 1.81,-0.55 1.81,-0.55 1.8,-0.55 1.81,-0.56 1.81,-0.58 1.8,-0.58 1.81,-0.6 1.81,-0.62 1.81,-0.63 1.8,-0.65 1.81,-0.67 1.81,-0.67 1.8,-0.68 1.81,-0.69 1.81,-0.67 1.8,-0.67 1.81,-0.66 1.81,-0.64 1.8,-0.61 1.81,-0.58 1.81,-0.55 1.8,-0.51 1.81,-0.48 1.81,-0.45 1.8,-0.41 1.81,-0.37 1.81,-0.34 1.81,-0.32 1.8,-0.29 1.81,-0.27 1.81,-0.25 1.8,-0.24 1.81,-0.23 1.81,-0.22 1.8,-0.22 1.81,-0.22 1.81,-0.21 1.8,-0.22 1.81,-0.22 1.81,-0.21 1.8,-0.22 1.81,-0.22 1.81,-0.21 1.8,-0.21 1.81,-0.2 1.81,-0.2 1.8,-0.2 1.81,-0.18 1.81,-0.18 1.81,-0.17 1.8,-0.17 1.81,-0.16 1.81,-0.16 1.8,-0.15 1.81,-0.16 1.81,-0.16 1.8,-0.16 1.81,-0.17 1.81,-0.18 1.8,-0.19 1.81,-0.2 1.81,-0.22 1.8,-0.24 1.81,-0.25 1.81,-0.27 1.8,-0.29 1.81,-0.31 1.81,-0.33 1.81,-0.35 1.8,-0.36 1.81,-0.38 1.81,-0.39 1.8,-0.4 1.81,-0.41 1.81,-0.41 1.8,-0.41 1.81,-0.41 1.81,-0.4 1.8,-0.4 1.81,-0.38 1.81,-0.38 1.8,-0.36 1.81,-0.35 1.81,-0.33 1.8,-0.32 1.81,-0.31 1.81,-0.29 1.81,-0.28 1.8,-0.26 1.81,-0.26 1.81,-0.24 1.8,-0.23 1.81,-0.21 1.81,-0.21 1.8,-0.19 1.81,-0.18 1.81,-0.17 1.8,-0.15 1.81,-0.15 1.81,-0.12 1.8,-0.12 1.81,-0.1 1.81,-0.09 1.8,-0.08 1.81,-0.07 1.81,-0.06 1.81,-0.05 1.8,-0.05 1.81,-0.05 1.81,-0.04 1.8,-0.04 1.81,-0.05 1.81,-0.05 1.8,-0.05 1.81,-0.06 1.81,-0.06 1.8,-0.07 1.81,-0.08 1.81,-0.08 1.8,-0.09 1.81,-0.09 1.81,-0.09 1.8,-0.1 1.81,-0.1 1.81,-0.1 1.81,-0.09 1.8,-0.09 1.81,-0.09 1.81,-0.08 1.8,-0.08 1.81,-0.07 1.81,-0.06 1.8,-0.06 1.81,-0.05 1.81,-0.04 1.8,-0.04 1.81,-0.03 1.81,-0.03 1.8,-0.03 1.81,-0.03 1.81,-0.04 1.8,-0.04 1.81,-0.04 1.81,-0.05 1.8,-0.06 1.81,-0.07 1.81,-0.09 1.81,-0.09 1.8,-0.1 1.81,-0.11 1.81,-0.12 1.8,-0.13 1.81,-0.14 1.81,-0.14 1.8,-0.14 1.81,-0.15 1.81,-0.14 1.8,-0.14 1.81,-0.14 1.81,-0.13 1.8,-0.13 1.81,-0.12 1.81,-0.11 1.8,-0.1 1.81,-0.09 1.81,-0.07 1.81,-0.07 1.8,-0.06 1.81,-0.06 1.81,-0.04 1.8,-0.04 1.81,-0.04 1.81,-0.03 1.8,-0.02 1.81,-0.02 1.81,-0.02 1.8,-0.02 1.81,-0.02 1.81,-0.02 1.8,-0.02 1.81,-0.02 1.81,-0.03 1.8,-0.02 1.81,-0.03 1.81,-0.03 1.81,-0.03 1.8,-0.03 1.81,-0.04 1.81,-0.04 1.8,-0.04 1.81,-0.05 1.81,-0.05 1.8,-0.05 1.81,-0.06 1.81,-0.06 1.8,-0.06 1.81,-0.06 1.81,-0.06 1.8,-0.06 1.81,-0.07 1.81,-0.06 1.8,-0.06 1.81,-0.06 1.81,-0.06 1.81,-0.05 1.8,-0.05 1.81,-0.05 1.81,-0.04 1.8,-0.04 1.81,-0.04 1.81,-0.03 1.8,-0.03 1.81,-0.02 1.81,-0.02 1.8,-0.01 1.81,-0.01 1.81,-0.01 1.8,0 1.81,0 1.81,0 1.8,0 1.81,0 1.81,0.01 1.81,0 1.8,0.01 1.81,0 1.81,0 1.8,0 1.81,0 1.81,0 1.8,0 1.81,0 1.81,0 1.8,-0.01 1.81,0 1.81,0 1.8,0 1.81,0.01 1.81,0 1.8,0.01 1.81,0.01 1.81,0.01 1.81,0.01 1.8,0.02 1.81,0.01 1.81,0.02 1.8,0.01 1.81,0.02 1.81,0.01 1.8,0.01 1.81,0.01 1.81,0 1.8,0 1.81,0 1.81,0 1.8,-0.01 1.81,-0.01 1.81,-0.01 1.8,-0.01 1.81,-0.01 1.81,-0.01 1.8,-0.02 1.81,0 1.81,-0.01 1.81,-0.01 1.8,0 1.81,0 1.81,0 1.8,0.01 1.81,0 1.81,0.01 1.8,0.01 1.81,0.01 1.81,0.01 1.8,0.01 1.81,0.01 1.81,0 1.8,0 1.81,0 1.81,-0.01 1.8,-0.01 1.81,-0.01 1.81,-0.01 1.81,-0.02 1.77,-0.02"
           style="fill:none;stroke:#a3443f;stroke-width:0.75;stroke-linecap:round;stroke-linejoin:round;stroke-miterlimit:10;stroke-dasharray:2.25, 3.75000000000000000;stroke-dashoffset:0;stroke-opacity:0.94117647"
           id="path5471"
           inkscape:connector-curvature="0" /><path
           d="m 71.5,84.54 1.81,0.01 1.82,0 1.82,0.01 1.82,0.01 1.82,0.01 1.81,0.02 1.82,0.02 1.82,0.02 1.82,0.04 1.81,0.04 1.82,0.06 1.82,0.07 1.82,0.09 1.81,0.11 1.82,0.14 1.82,0.18 1.82,0.21 1.82,0.27 1.81,0.33 1.82,0.41 1.82,0.5 1.82,0.63 1.81,0.77 1.82,0.95 1.82,1.14 1.82,1.39 1.81,1.66 1.82,1.97 1.82,2.33 1.82,2.79 1.81,3.27 1.82,3.77 1.82,4.3 1.82,4.86 1.82,5.44 1.81,6.02 1.82,6.6 1.82,7.22 1.82,7.75 1.81,8.18 1.82,8.54 1.82,8.8 1.82,8.96 1.81,8.99 1.82,8.9 1.82,8.65 1.82,8.24 1.82,7.72 1.81,7.09 1.82,6.38 1.82,5.58 1.82,4.72 1.81,3.84 1.82,2.85 1.82,1.9 1.82,1.06 1.81,0.26 1.82,-0.45 1.82,-1.09 1.82,-1.63 1.82,-2.09 1.81,-2.46 1.82,-2.72 1.82,-2.87 1.82,-2.93 1.81,-2.95 1.82,-2.9 1.82,-2.8 1.82,-2.68 1.81,-2.52 1.82,-2.34 1.82,-2.18 1.82,-2.02 1.81,-1.89 1.82,-1.75 1.82,-1.66 1.82,-1.57 1.82,-1.5 1.81,-1.47 1.82,-1.45 1.82,-1.47 1.82,-1.48 1.81,-1.53 1.82,-1.57 1.82,-1.63 1.82,-1.7 1.81,-1.78 1.82,-1.84 1.82,-1.91 1.82,-1.98 1.82,-2.03 1.81,-2.07 1.82,-2.12 1.82,-2.14 1.82,-2.15 1.81,-2.15 1.82,-2.13 1.82,-2.1 1.82,-2.06 1.81,-2.01 1.82,-1.94 1.82,-1.87 1.82,-1.77 1.82,-1.69 1.81,-1.58 1.82,-1.5 1.82,-1.39 1.82,-1.3 1.81,-1.2 1.82,-1.12 1.82,-1.02 1.82,-0.96 1.81,-0.9 1.82,-0.87 1.82,-0.83 1.82,-0.82 1.81,-0.83 1.82,-0.84 1.82,-0.88 1.82,-0.93 1.82,-0.99 1.81,-1.04 1.82,-1.12 1.82,-1.18 1.82,-1.24 1.81,-1.3 1.82,-1.36 1.82,-1.39 1.82,-1.41 1.81,-1.41 1.82,-1.4 1.82,-1.38 1.82,-1.34 1.82,-1.29 1.81,-1.23 1.82,-1.15 1.82,-1.07 1.82,-1 1.81,-0.94 1.82,-0.86 1.82,-0.81 1.82,-0.75 1.81,-0.7 1.82,-0.67 1.82,-0.64 1.82,-0.64 1.82,-0.62 1.81,-0.62 1.82,-0.63 1.82,-0.63 1.82,-0.64 1.81,-0.65 1.82,-0.66 1.82,-0.66 1.82,-0.67 1.81,-0.67 1.82,-0.67 1.82,-0.66 1.82,-0.66 1.81,-0.65 1.82,-0.64 1.82,-0.63 1.82,-0.63 1.82,-0.61 1.81,-0.6 1.82,-0.6 1.82,-0.59 1.82,-0.58 1.81,-0.58 1.82,-0.58 1.82,-0.57 1.82,-0.56 1.81,-0.57 1.82,-0.55 1.82,-0.55 1.82,-0.54 1.82,-0.53 1.81,-0.51 1.82,-0.5 1.82,-0.48 1.82,-0.46 1.81,-0.44 1.82,-0.41 1.82,-0.38 1.82,-0.36 1.81,-0.34 1.82,-0.3 1.82,-0.28 1.82,-0.24 1.82,-0.22 1.81,-0.19 1.82,-0.16 1.82,-0.14 1.82,-0.11 1.81,-0.09 1.82,-0.08 1.82,-0.05 1.82,-0.04 1.81,-0.04 1.82,-0.02 1.82,-0.02 1.82,-0.03 1.82,-0.02 1.81,-0.04 1.82,-0.04 1.82,-0.06 1.82,-0.08 1.81,-0.1 1.82,-0.12 1.82,-0.14 1.82,-0.17 1.81,-0.19 1.82,-0.22 1.82,-0.23 1.82,-0.25 1.81,-0.28 1.82,-0.28 1.82,-0.29 1.82,-0.3 1.82,-0.3 1.81,-0.3 1.82,-0.3 1.82,-0.29 1.82,-0.27 1.81,-0.26 1.82,-0.25 1.82,-0.24 1.82,-0.22 1.81,-0.21 1.82,-0.19 1.82,-0.18 1.82,-0.17 1.82,-0.15 1.81,-0.15 1.82,-0.15 1.82,-0.14 1.82,-0.13 1.81,-0.13 1.82,-0.13 1.82,-0.13 1.82,-0.12 1.81,-0.13 1.82,-0.12 1.82,-0.13 1.82,-0.12 1.82,-0.12 1.81,-0.11 1.82,-0.11 1.82,-0.1 1.82,-0.09 1.81,-0.09 1.82,-0.07 1.82,-0.07 1.82,-0.05 1.81,-0.03 1.82,-0.03 1.82,0 1.82,0 1.81,0.02 1.82,0.03 1.82,0.04 1.82,0.05 1.82,0.05 1.81,0.06 1.82,0.05 1.82,0.06 1.82,0.04 1.81,0.04 1.82,0.02 1.82,0 1.82,-0.01 1.81,-0.03 1.82,-0.06 1.82,-0.08 1.82,-0.1 1.82,-0.12 1.81,-0.14 1.82,-0.16 1.82,-0.16 1.82,-0.18 1.81,-0.19 1.82,-0.18 1.82,-0.18 1.82,-0.17 1.81,-0.16 1.82,-0.15 1.82,-0.13 1.82,-0.12 1.82,-0.09 1.81,-0.08 1.82,-0.06 1.82,-0.04 1.82,-0.02 1.81,-0.01 1.82,0 1.82,0 1.82,0.02 1.81,0.02 1.82,0.02 1.82,0.02 1.82,0.02 1.81,0.01 1.82,0.01 1.82,0 1.82,-0.01 1.82,-0.01 1.81,-0.02 1.82,-0.03 1.82,-0.03 1.82,-0.03 1.81,-0.04 1.82,-0.04 1.82,-0.04 1.82,-0.04 1.81,-0.03 1.82,-0.03 1.82,-0.03 1.82,-0.03 1.82,-0.02 1.81,-0.01 1.82,-0.01 1.82,-0.01 1.82,-0.01 1.81,0 1.82,0 1.82,-0.01 1.82,0 1.81,-0.01 1.82,0 1.82,-0.01 1.82,-0.01 1.82,-0.01 1.81,-0.01 1.82,-0.01 1.82,0 1.82,-0.01 1.81,0 1.82,0.01 1.82,0 1.82,0.01 1.81,0.02 1.82,0.02 1.82,0.02 1.82,0.02 1.81,0.02 1.82,0.02 1.82,0.01 1.82,0.02 1.82,0 1.81,0 1.82,-0.01 1.82,-0.01 1.82,-0.02 1.81,-0.04 1.82,-0.04 1.82,-0.04 1.82,-0.06 1.81,-0.06 1.82,-0.06 1.82,-0.07 1.82,-0.06 1.82,-0.07 1.81,-0.07 1.82,-0.07 1.82,-0.06 1.82,-0.06 1.81,-0.06 1.82,-0.05 1.82,-0.05 1.82,-0.04 1.81,-0.03 1.82,-0.03 1.82,-0.02 1.82,-0.01 1.82,-0.01 1.81,0 1.82,0.01 1.82,0.01 1.82,0.02 1.81,0.02 1.82,0.03 1.82,0.03 1.82,0.03 1.81,0.03 1.82,0.03 1.82,0.02 1.82,0.03 1.82,0.02 1.81,0.02 1.82,0.02 1.82,0.02 1.82,0.01 1.81,0.01 1.82,0.02 1.82,0.01 1.82,0.01 1.81,0.01 1.82,0.01 1.82,0.01 1.82,0.02 1.81,0.01 1.82,0.02 1.82,0.02 1.82,0.02 1.82,0.03 1.81,0.02 1.82,0.02 1.82,0.03 1.82,0.02 1.81,0.02 1.82,0.01 1.82,0.01 1.82,0 1.81,0 1.82,-0.01 1.82,-0.01 1.82,-0.02 1.82,-0.03 1.81,-0.04 1.82,-0.04 1.82,-0.05 1.82,-0.05 1.81,-0.05 1.82,-0.06 1.82,-0.06 1.82,-0.06 1.81,-0.06 1.82,-0.05 1.82,-0.06 1.82,-0.05 1.82,-0.05 1.81,-0.05 1.82,-0.04 1.82,-0.04 1.82,-0.03 1.81,-0.04"
           style="fill:none;stroke:#00cd00;stroke-width:0.75;stroke-linecap:round;stroke-linejoin:round;stroke-miterlimit:10;stroke-dasharray:2.25, 3.75;stroke-dashoffset:0;stroke-opacity:1"
           id="path5473"
           inkscape:connector-curvature="0" /></g></g></g></svg>